<svg xmlns="http://www.w3.org/2000/svg" viewBox="0 0 136.58 136.53"><defs><style>.cls-1{fill:#495653;}</style></defs><g id="Layer_2" data-name="Layer 2"><g id="Layer_1-2" data-name="Layer 1"><path class="cls-1" d="M136.58,70.42a46.66,46.66,0,0,0-5.79-22.88A48.23,48.23,0,0,0,88.66,22.31a50.17,50.17,0,0,0-7.38.56A46.66,46.66,0,0,0,57.55,33.66a2.11,2.11,0,0,1-.32.23,1.94,1.94,0,0,1-.26-.28,26.13,26.13,0,0,0-4.71-4.52,32.48,32.48,0,0,0-20-6.8,31,31,0,0,0-17.35,5.16C4.29,34.6-.71,44.71.08,57.53c.74,12,9.63,23.69,21.12,27.75a33.88,33.88,0,0,0,11.23,2,33.24,33.24,0,0,0,10-1.57,3.73,3.73,0,0,1,.38-.1l.09.25a26.75,26.75,0,0,0,1.4,3.64,2.69,2.69,0,0,1,.11.3,1.35,1.35,0,0,1-.27.25C35.91,96.42,32.5,104.79,34,114.92c1.76,12.12,12.86,21.61,25.28,21.61a24.25,24.25,0,0,0,5.3-.59c9.44-2.11,15.92-7.88,19.25-17.15a1.42,1.42,0,0,1,.23-.48h.13a36.16,36.16,0,0,0,4.34.25,45.34,45.34,0,0,0,5.09-.29,47,47,0,0,0,28.62-13.53A47.35,47.35,0,0,0,136.58,70.42ZM85.11,111.59h0a1.47,1.47,0,0,1-.06-.61,24.48,24.48,0,0,0-9.92-20.56A24.61,24.61,0,0,0,59.77,85a28.63,28.63,0,0,0-8.67,1.42,2,2,0,0,1-.65.12h-.06s-.12-.08-.33-.6A41.39,41.39,0,0,1,81,29.78a48,48,0,0,1,4.87-.53c.83-.06,1.64-.12,2.43-.2,20.82.3,37.66,14.58,41,34.75,3.57,21.71-11,42.88-32.54,47.19a41.14,41.14,0,0,1-8.07.81c-1,0-2,0-2.91-.11A2.23,2.23,0,0,1,85.11,111.59ZM59.35,91.78v-1h0l.06,1a18.64,18.64,0,0,1,18.91,19.08A18.55,18.55,0,0,1,59.39,129.7c-10.55,0-18.75-8.16-19.07-18.92C40.63,100,48.81,91.78,59.35,91.78ZM40.43,74.12A27.47,27.47,0,0,0,41,78.57a1.08,1.08,0,0,1,0,.39,1.29,1.29,0,0,1-.51.22,28.46,28.46,0,0,1-8.41,1.34,24.67,24.67,0,0,1-13.86-4.33C11,71.32,7.1,64.2,6.75,55.08,7,39.37,19.1,30,30.31,29.24c.73,0,1.46-.07,2.18-.07,7.63,0,14,2.9,19.44,8.88.49.53.51.55,0,1.21A47.73,47.73,0,0,0,40.43,74.12Z"/><path class="cls-1" d="M104,15.61a6.26,6.26,0,0,1,4.13,1.8,6.54,6.54,0,0,1,1.58,4,3.24,3.24,0,0,0,3.32,3.14h0a3.24,3.24,0,0,0,3.29-3c.6-4.05,1.92-5.39,5.92-6a3.27,3.27,0,0,0,3-3.25A3.25,3.25,0,0,0,122.26,9c-3.87-.53-5.35-2-5.87-5.83a3.33,3.33,0,0,0-6.65,0c-.5,3.74-2.06,5.31-5.76,5.79a3.25,3.25,0,0,0-3.19,3.26C100.75,14.1,102,15.37,104,15.61Zm8.44-3.33a6.69,6.69,0,0,1,.59-.6,4.7,4.7,0,0,1,.59.59,3.66,3.66,0,0,1-.59.59A6.45,6.45,0,0,1,112.47,12.28Z"/><path class="cls-1" d="M28.33,107.42c-4-.58-5.36-1.91-5.93-5.93a3.34,3.34,0,0,0-6.65.07c-.53,3.85-2,5.33-5.85,5.85a3.34,3.34,0,0,0,.07,6.66,7.62,7.62,0,0,1,3,.89c1.66,1,2.51,2.56,2.74,5A3.22,3.22,0,0,0,19,123h.06a3.28,3.28,0,0,0,3.31-2.94c.65-4.2,1.83-5.38,6-6a3.34,3.34,0,0,0-.08-6.64Zm-9.26,3.94a1.62,1.62,0,0,1-.68-.62,2.58,2.58,0,0,1,.67-.58,8.22,8.22,0,0,1,.61.57A6,6,0,0,1,19.07,111.36Z"/><path class="cls-1" d="M59.33,26.8h0a10,10,0,0,0,10.07-10A9.92,9.92,0,0,0,59.31,6.7a9.87,9.87,0,0,0-10,9.92,10.15,10.15,0,0,0,2.91,7.29A9.94,9.94,0,0,0,59.33,26.8Zm0-14.39,0,1a3.53,3.53,0,0,1,3.32,3.34,3.53,3.53,0,0,1-3.38,3.37h0A3.52,3.52,0,0,1,56,16.77a3.49,3.49,0,0,1,3.34-3.37v-1Z"/><path class="cls-1" d="M126.5,109.65a7.64,7.64,0,0,0-7.82,7.76,7.73,7.73,0,0,0,7.73,7.86h0a7.9,7.9,0,0,0,5.62-2.24,7.79,7.79,0,0,0,2.24-5.6A7.61,7.61,0,0,0,126.5,109.65Zm1.07,7.79a1.27,1.27,0,0,1-1.07,1.1,1.28,1.28,0,0,1-1.09-1,1.05,1.05,0,0,1,.32-.72,1.14,1.14,0,0,1,.75-.41v-1h0v1A1.26,1.26,0,0,1,127.57,117.44Z"/><path class="cls-1" d="M83.26,17.85h1.63c2.3,0,2.41-1,2.42-2.78v-.46c0-2.78-.28-3.43-3.1-3.43h-.35c-2.71,0-3.22.47-3.22,3,0,1.75,0,2.55.59,3.16A2.72,2.72,0,0,0,83.26,17.85Z"/><path class="cls-1" d="M30.37,91.74H30c-2.6,0-3.1.47-3.1,3,0,1.59,0,2.38.46,3s1.39.73,2.63.73h.28c2.81,0,3.3-.49,3.3-3.24C33.61,92.19,33.19,91.74,30.37,91.74Z"/><path class="cls-1" d="M8.09,123.07H7.37c-1.11,0-1.79,0-2.31.53s-.51,1.19-.51,2.3v.76c0,1.16,0,1.92.55,2.49s1.43.59,2.81.59H8c1.3,0,2.09,0,2.66-.59s.55-1.34.55-2.72C11.22,123.75,10.91,123.07,8.09,123.07Z"/><path class="cls-1" d="M106.57,123.07h-.33c-2.71,0-3.22.47-3.22,3,0,1.75,0,2.54.59,3.15a2.72,2.72,0,0,0,2,.55h1.62c2.19,0,2.42-.84,2.43-2.77v-.48C109.69,123.72,109.41,123.07,106.57,123.07Z"/><path class="cls-1" d="M92.71,38.23l.19,0a30.35,30.35,0,0,1,11.88,3.87c8.35,4.78,13.45,12.48,15.6,23.54.07.39.14.73.19,1,.3,1.67.52,2.87,2.1,2.87a9,9,0,0,0,1.11-.11c.44-.06,1-.14,1.7-.2a2.19,2.19,0,0,0,1.63-.77,2.43,2.43,0,0,0,.34-1.91,74.67,74.67,0,0,0-1.63-7.32,38.09,38.09,0,0,0-33-27.87,11,11,0,0,0-1.12-.08c-2.05,0-2.06,1.62-2.06,2.92v.43C89.59,37.49,90,37.93,92.71,38.23Z"/><path class="cls-1" d="M90.81,55.89a2.15,2.15,0,0,0,.62-.08,3.15,3.15,0,0,0,2.58-3,3.34,3.34,0,0,0-3.15-3.59c-3.73-.5-5.3-2.06-5.79-5.76a3.28,3.28,0,0,0-3.35-3.19c-1.85,0-3.06,1.18-3.32,3.23-.46,3.6-2.11,5.25-5.68,5.71-2.08.26-3.27,1.49-3.26,3.36,0,1.08.44,3,3.29,3.32,3.5.45,5.18,2.13,5.64,5.6.36,2.71,2,3.31,3.27,3.33h.09c1.31,0,3-.58,3.33-3.36.47-3.43,2.12-5.1,5.54-5.56Zm-9.06-2.74a8.07,8.07,0,0,1-.59-.58,8.14,8.14,0,0,1,.6-.58,4.15,4.15,0,0,1,.55.56A7.81,7.81,0,0,1,81.75,53.15Z"/><path class="cls-1" d="M117.81,69.39c-3.57-.25-5.73-2.42-5.92-6a3.16,3.16,0,0,0-3.38-3h0a3.27,3.27,0,0,0-3.24,3c-.55,3.9-2,5.39-5.81,5.9a3.34,3.34,0,0,0,0,6.66c3.82.51,5.29,2,5.82,5.88A3.26,3.26,0,0,0,108.58,85h.1a3.26,3.26,0,0,0,3.23-3c.56-4,1.9-5.3,6-5.9a3.25,3.25,0,0,0,3-3.31A3.2,3.2,0,0,0,117.81,69.39ZM108,72.69a4.91,4.91,0,0,1,.63-.57,4.44,4.44,0,0,1,.58.56,6.47,6.47,0,0,1-.59.58A2.71,2.71,0,0,1,108,72.69Z"/><path class="cls-1" d="M93.59,94H92.07a2.58,2.58,0,0,0-2,.52c-.52.52-.52,1.19-.52,2.3v.64c0,1.27,0,2,.57,2.61s1.41.6,2.77.6h.12c1.3,0,2.09,0,2.66-.6s.55-1.34.55-2.72C96.26,95,96.15,94,93.59,94Z"/><path class="cls-1" d="M33.59,35c0-.1,0-.2,0-.3v-.41c0-.25,0-.51,0-.76a2,2,0,0,0-.48-1.65,2.15,2.15,0,0,0-1.69-.62h-.12c-7.19.19-12.92,3-17,8.26C10.66,44.18,8.94,50,8.89,57.88a2.9,2.9,0,0,0,.58,2.18,2,2,0,0,0,1.44.52,8.39,8.39,0,0,0,1.1-.1,9.59,9.59,0,0,1,1.36-.13,2.38,2.38,0,0,0,1.81-.67,2.25,2.25,0,0,0,.51-1.74,20.19,20.19,0,0,1,.25-4.14l0-.25c.61-4.78,1.94-8.07,4.29-10.66A15,15,0,0,1,31.1,38a2.68,2.68,0,0,0,2.08-.77,2.29,2.29,0,0,0,.42-1.84A2.77,2.77,0,0,1,33.59,35Z"/><path class="cls-1" d="M30.27,58.17H30c-2.58,0-3.07.49-3.07,3.06A5.47,5.47,0,0,0,27.28,64a2.43,2.43,0,0,0,2.33.87h1.5c2.26,0,2.48-.81,2.49-2.78v-.56C33.61,58.61,33.17,58.18,30.27,58.17Z"/></g></g></svg>