<svg id="Layer_1" data-name="Layer 1" xmlns="http://www.w3.org/2000/svg" viewBox="0 0 1000 106"><defs><style>.cls-1{font-size:17.72px;font-family:BellMT, Bell MT;}</style></defs><path d="M82.32,103.47H8c-3.67,0-4-.34-4-4,0-19.31,0-38.63,0-57.95A5.71,5.71,0,0,1,5.86,37.1Q22.3,20.8,38.62,4.4C41.1,1.91,42,1.88,44.7,4.47,50.17,9.71,55.61,15,61.05,20.28c2.72,2.65,2.71,2.66,5.35,0q8.17-8.18,16.36-16.36C84.66,2.05,86,2.05,87.84,4c5.29,5.78,10.64,11.52,15.78,17.43,1.37,1.57,2,1.28,3.23,0,5.62-5.74,11.34-11.39,17-17.08,1.95-1.94,3-2,4.86,0,6.24,6.76,12.42,13.57,18.62,20.37,3.5,3.83,6.93,7.71,10.52,11.45a5.23,5.23,0,0,1,1.6,3.94q-.06,29.07,0,58.15a22.65,22.65,0,0,0,.05,2.33c.32,2.72.23,2.86-2.51,2.86Zm33-34.14c0-8.95-.09-17.89,0-26.83A8.53,8.53,0,0,0,112.89,36C104.16,26.58,95.61,17,87,7.52c-1.66-1.83-1.66-1.83-3.4-.1-5.36,5.36-10.69,10.75-16.1,16.06-1.13,1.11-1.27,1.78,0,2.92,3.61,3.34,7.07,6.85,10.69,10.19a6.85,6.85,0,0,1,2.28,5.49c-.07,18.66,0,37.33,0,56,0,2.44.09,2.54,2.51,2.54,10,0,20,0,29.93,0,2,0,2.54-.6,2.52-2.55C115.26,88.51,115.31,78.92,115.31,69.33Zm-76.19-62a13.36,13.36,0,0,1-2,2.59c-2,1.61-2.54,3.55-2.54,6.09.09,27.16.06,54.32.06,81.48,0,.64,0,1.29,0,1.94s.39,1,1.07,1.14c3.34.7,4.26,0,4.26-3.29q0-43.56,0-87.12A3.58,3.58,0,0,0,39.12,7.34Zm4,0V97.68c0,.58,0,1.16,0,1.75a1.17,1.17,0,0,0,1.08,1.15c3,.66,3.93,0,3.93-3,0-27.09-.12-54.18.12-81.26C48.29,12.08,46.22,10,43.08,7.39ZM128.5,8.62c-.07.74-.13,1.05-.13,1.36q0,44.35,0,88.7c0,1.42.49,1.89,1.91,2,2,.12,2.19-.87,2.19-2.48,0-27.29-.1-54.59.06-81.89C132.53,12.87,130.89,10.94,128.5,8.62ZM51.37,15.28c-.07.77-.13,1.15-.13,1.53q0,40.85,0,81.67c0,1.6.55,2.12,2.15,2.18,2,.08,2.14-1,2.14-2.56,0-25.22-.09-50.43.07-75.64C55.6,19,53.9,17.31,51.37,15.28ZM59,22.5a3.25,3.25,0,0,0-.36,2.34q0,22.25,0,44.49c0,9.65,0,19.3,0,29,0,1.77.58,2.34,2.36,2.39,2,0,2.28-.9,2.27-2.6,0-22.73-.12-45.46.08-68.19C63.31,26.17,61.32,24.47,59,22.5ZM31.63,16.07c-1.71,1.59-4.13,2.42-4.13,5.31q.09,38.46,0,76.94c0,1.82.63,2.35,2.37,2.33s1.86-1.1,1.86-2.42q0-40.32,0-80.64C31.72,17.08,31.66,16.57,31.63,16.07ZM66.09,65c0,11.14,0,22.29,0,33.43,0,1.53.37,2.27,2.06,2.22,2.32-.08,2.43-.09,2.43-2.58,0-20.48,0-40.95,0-61.42,0-2.36-.54-4.15-2.44-5.51-.57-.4-1-1.34-1.7-1.11s-.36,1.27-.36,1.93Q66.08,48.47,66.09,65ZM24.54,22.85c-2.65,1.8-4,3.82-3.71,7,.29,3.54.07,7.12.07,10.69q0,28.77,0,57.54c0,.94-.45,2.18,1.09,2.53,1.89.43,2.63-.12,2.63-2.11V24.39C24.63,24,24.58,23.52,24.54,22.85Zm110.79-6.44V97.26c0,.52,0,1,0,1.55a1.73,1.73,0,0,0,2.6,1.69c1.13-.52.71-1.58.71-2.41,0-25.26,0-50.53.07-75.79C138.73,19.67,137.61,18.09,135.33,16.41ZM17.69,30.08l-.44-.21c-1.18,1.54-3.3,2.31-3.3,4.84Q14,66.59,14,98.47c0,2,.51,2.35,2.46,2.13,1.58-.17,1.34-1.32,1.34-2.32q0-33.42,0-66.86C17.78,31,17.72,30.53,17.69,30.08ZM11,36.69l-.46-.23c-1,1.83-3.59,2.48-3.59,5.2q.06,28.47,0,57c0,1.54.56,2,2.05,2s2.1-.6,2.1-2.18q-.06-30.31,0-60.64C11.05,37.45,11,37.07,11,36.69Zm130.6-13.46V57.15q0,20.63,0,41.23c0,2,.53,2.5,2.18,2.2s1.06-1.58,1.06-2.5c0-22.68,0-45.37.1-68.06A7.39,7.39,0,0,0,141.58,23.23ZM125.45,7.54a4.38,4.38,0,0,0-2.57,4.34q.06,42.88.07,85.77c0,1-.82,2.84,1.21,2.87s1.25-1.8,1.25-2.83q.07-43.85,0-87.71ZM73.65,36.77a8.08,8.08,0,0,0-.18,1.13q0,30.43,0,60.87c0,1.32.48,1.8,1.82,1.87,1.94.1,2-1,2-2.46,0-18.48-.09-37,.06-55.43C77.38,39.76,75.74,38.41,73.65,36.77Zm46.09-23.62c-2.6,1.67-4,3.74-3.82,6.92.22,4.39.06,8.81,0,13.21a3.14,3.14,0,0,0,.74,2.53c1.37,1.28,1.54,2.87,1.53,4.62q0,28.77,0,57.53c0,.87-.68,2.49.95,2.43,1.32,0,.79-1.56.79-2.42q0-41.4,0-82.8A3.34,3.34,0,0,0,119.74,13.15Zm28,16.88v2.33q0,32.74,0,65.49c0,.45,0,.9,0,1.36,0,1,.5,1.38,1.46,1.38s1.5-.31,1.47-1.34c0-.38,0-.77,0-1.16,0-21,0-42,0-63C150.76,32.88,149.82,31.49,147.75,30Zm5.87,6.41V98.07c0,.52,0,1,.06,1.55.07.74.6.95,1.24,1s1.28.09,1.47-.62a7.23,7.23,0,0,0,.14-1.92c0-18.52,0-37,.06-55.57A6.5,6.5,0,0,0,153.62,36.44ZM113,20.07c-2.63,1.75-2.51,9.36,0,11.09Z"/><path d="M610.49,76.47c-13.67,0-23.5-9.93-23.59-23.88-.1-14.13,9.28-23.74,23.11-23.7s23.45,9.71,23.41,23.58C633.38,66.62,624,76.45,610.49,76.47Zm-17-23.88A25.25,25.25,0,0,0,595.92,65c3.16,6.67,7.86,9.32,15.79,9,6.47-.29,11.07-3.73,13.35-10.29a32.55,32.55,0,0,0,.54-19.93c-2.42-8.46-8.08-12.58-16.48-12.39-7.42.16-12.62,4.79-14.76,13.07A27.86,27.86,0,0,0,593.54,52.59Z"/><path d="M824.82,76.47c-13.69,0-23.49-9.85-23.64-23.83s9.22-23.75,23.06-23.75,23.48,9.67,23.46,23.53C847.68,66.57,838.29,76.44,824.82,76.47Zm-17-23.5a24.91,24.91,0,0,0,2.5,12.29c3.24,6.67,8.67,9.23,16,8.76,6.8-.44,10.83-4.24,13-10.23A31.82,31.82,0,0,0,840,44.23c-2.37-8.76-8-13-16.51-12.85-7.57.14-12.76,4.81-14.91,13.33A30.64,30.64,0,0,0,807.81,53Z"/><path d="M468.2,67c0-10.65.08-20.35,0-30-.05-3.81-2.25-6-6.68-6l.58-1h15.18c0,1.31-.88,1.26-1.54,1.33-2.71.28-3.66,2.07-4.1,4.46-1.22,6.6-.51,13.25-.64,19.88-.12,5.66,0,11.32,0,17,0,1.16.44,2.69-1,3.26s-2.44-.81-3.25-1.84Q453.78,57.87,441,41.66c-.59-.74-1.25-1.43-2.57-2.92,0,5.66,0,10.38,0,15.11,0,4.18,0,8.37.09,12.55s1.12,7.84,6.13,9h-15c7.52-2,6.07-8.16,6.16-13.45.14-7.26.05-14.52,0-21.78,0-4.47-.33-8.84-6.61-9.34,3.77-2.34,8.61-1.66,11,1.29q12,15,24,29.95C465.27,63.48,466.45,64.88,468.2,67Z"/><path d="M339.13,44.9A49.71,49.71,0,0,1,339.38,60c-2.94-5.43-4.59-6.34-10.54-6-2,.12-2.92,1-2.89,3,.05,4.18,0,8.37.2,12.55.14,2.92,1.67,4.53,4.86,4,1.57-.25,3.18-.3,4.77-.51,4.51-.6,8.78-1.62,10.81-7.47,1.42,3.5,1,6.21.65,8.87-.14,1-1.15,1.23-2,1.23q-15.09,0-30.23,0a6,6,0,0,1,.06-1c4.12-.7,5.07-3.67,5.22-7.22q.63-15,0-29.9c-.2-4.85-.54-4.84-5.56-7.15,1-1.4,2.45-.91,3.66-.92,7.26-.05,14.52,0,21.79,0,5,0,5.13.11,5,5.24,0,1.36.59,3-1,4.17-3.16-7.16-9.65-6.54-15.73-6.83C326.73,32,326,33,326,34.61q0,7.2,0,14.4c0,1.87.9,2.73,2.74,2.57C333.2,51.2,338.17,51.57,339.13,44.9Z"/><path d="M952,66.52c1,2.43.64,4.74.64,7,0,1.29-.61,2.13-2,2.13-10.16,0-20.31,0-30.78-.36,6.59-1.81,5.73-7,5.77-11.63.06-8,0-16,0-24,0-4.15.13-8.44-6-8.88,1.42-1.78,2.86-1.28,4.07-1.29,7.26-.05,14.52,0,21.77,0,4.93,0,5,.08,5,4.91a10,10,0,0,1-.69,4.91c-3.2-7.25-9.44-6.85-15.36-7.28-2.43-.17-3.27.93-3.23,3.27.1,4.42.09,8.85,0,13.28,0,2.21.84,3.29,3.06,3,4.25-.62,9.47.24,9.49-7.08l1,.77V59.92c-1.11-6.71-6.44-5.42-10.76-6-1.86-.23-2.8.3-2.76,2.31.09,4.31-.07,8.62.19,12.91.21,3.67,1.72,4.71,5.29,4.31,1.46-.16,2.94-.25,4.4-.43C945.6,72.51,949.82,71.4,952,66.52Z"/><path d="M380.3,30.1c3.33-1,6.47-.66,9.54-.37,1.8.17,2,2,2.51,3.34,4,10.71,7.95,21.45,11.95,32.17,2.46,6.56,2.49,6.55,7.86,10.17h-15.5c.79-1.72,3.78-1.18,3.47-3.42a29.4,29.4,0,0,0-3-9.43c-.61-1.16-1.95-.87-3-.87-4.18,0-8.37.14-12.55-.07-2.83-.14-4.43.86-5,3.63a20.62,20.62,0,0,1-.62,2.13c-1,3.36-1.87,6.64,3.32,7.77a46.21,46.21,0,0,1-13.59.1c6-2,7.24-7.36,9-12.26,2.89-8.24,5.74-16.5,8.49-24.78C384.79,33.22,384.6,32.9,380.3,30.1Zm7.27,5.81-.82,0-7.32,20.76c-.62,1.76,0,2.49,1.88,2.46,4,0,8.09,0,12.13,0,1.91,0,2.35-.89,1.72-2.58Q391.35,46.23,387.57,35.91Z"/><path d="M870.66,61.87c1.29,1.22,1.11,2.91,1.49,4.4A10.44,10.44,0,0,0,888,72.65c4.25-2.61,4.82-8.5,1.18-12.5-2.19-2.42-5.09-3.85-7.83-5.5A48.64,48.64,0,0,1,873.19,49a11.08,11.08,0,0,1-3.75-11c.93-4.47,3.95-7,8.11-8.23,5.06-1.57,10-.75,14.8,1.05.93.35,2.13.77,2.07,1.85-.18,3.46.42,7.06-1.31,10.34-1.55-.45-1.33-1.59-1.42-2.5a10.64,10.64,0,0,0-2-5.47,8.78,8.78,0,0,0-9.1-3.57,7,7,0,0,0-6,5.35c-.94,3.64.64,6.66,3.53,8.69,3.93,2.74,8.17,5,12.2,7.64,3.33,2.15,5.75,5,6.2,9.15.84,7.76-3.92,13.29-12.14,14.07a24.35,24.35,0,0,1-8.78-.73C868.49,73.69,866.64,68.65,870.66,61.87Z"/><path d="M238.41,42.07c-1.67-2.79-2.53-5.39-4.61-7.22-6.42-5.66-19.19-4.38-24.24,2.49-5.86,8-5.56,23.3.61,31a14.55,14.55,0,0,0,10.9,5.43,27.42,27.42,0,0,0,16.61-3.92c.75-.45,1.74-1.63,2.54-.52s-.43,1.94-1.28,2.6c-9.36,7.26-26.82,5.75-34.24-2.94-8.58-10.06-7.81-25.68,1.84-34.43,6.53-5.93,14.37-6.38,22.56-4.82a45.24,45.24,0,0,1,5,1.32C239.72,32.82,240.82,35.33,238.41,42.07Z"/><path d="M726.9,41.65c-.59-.45-1-.61-1.12-.88-4.45-7.87-9.79-10.57-18.4-9.28-6.5,1-11.21,5.8-13,13.46a33,33,0,0,0,0,15c2.47,10.52,10.4,15.55,21.36,13.62a28.35,28.35,0,0,0,10.32-3.83c.7-.44,1.64-1.68,2.46-.42.66,1-.33,1.76-1.1,2.42-13.52,11.53-36.49,3.46-39.84-14a25.6,25.6,0,0,1,2.29-16.85c4.92-9.75,14.78-13.74,27.44-11.21,1,.2,1.92.43,2.87.69C727.68,32.38,728.28,33.33,726.9,41.65Z"/><path d="M530.38,39.29c-1-2.95-.7-5.38-.53-7.78.11-1.56,1.3-2,2.64-2q16.43,0,32.84,0c1.77,0,2.85.74,2.86,2.58,0,2.23.47,4.54-.83,7.47C565,33.1,560.14,32.21,554.9,32c-2.32-.11-3.41.65-3.37,3.12.19,11.3-.23,22.61.52,33.92.29,4.4,3.24,4.94,6.31,6.3H539.53c.69-1.23,1.81-1.06,2.68-1.25a4.37,4.37,0,0,0,3.71-4.39c1-11.66.46-23.35.58-35,0-2.15-1.14-2.64-3-2.68C537.36,31.83,534,33.55,530.38,39.29Z"/><path d="M780.9,65.37a17.56,17.56,0,0,1,.76,8.47c-.1,1.33-1,1.87-2.3,1.88-1,0-2,0-3,0-8.47,0-16.94,0-25.87-.39,7.49-2,5.4-8.17,5.65-12.76A156.43,156.43,0,0,0,756,39c-.59-6.11-.51-6.12-6-9h17c-6,1.34-5.06,6.09-5.1,10.11q-.15,14.22.05,28.43c.07,4.77,1.2,5.76,5.83,5.19C773,73.05,778.58,72.81,780.9,65.37Z"/><path d="M293,66.3c.89,2.73.53,5.26.35,7.75-.09,1.17-1,1.65-2.09,1.65-9.56,0-19.12,0-29.05-.35,7-2,5.7-7.54,5.77-12.33q.18-11.81,0-23.61c-.1-6.4-.55-6.93-5.48-9.16,5.34-1.17,10.73-.68,16.53-.19-7.26,2.23-5.31,8.06-5.43,12.83-.2,8.48-.08,17,0,25.45.08,4.86,1.3,5.83,6.09,5.38C286.87,73,288.41,72.21,293,66.3Z"/><text class="cls-1" transform="translate(966.83 26.1)">TM</text></svg>