<svg xmlns="http://www.w3.org/2000/svg" viewBox="0 0 515 244.17"><defs><style>.cls-1{font-size:19.98px;}.cls-1,.cls-2{font-family:Gilroy-Light;font-weight:300;}.cls-2{font-size:17.75px;letter-spacing:0.21em;}.cls-3{letter-spacing:0.14em;}.cls-4{letter-spacing:0.21em;}</style></defs><g id="Layer_2" data-name="Layer 2"><g id="Layer_1-2" data-name="Layer 1"><path d="M258.09,119.35H170.26c-4.33,0-4.72-.39-4.72-4.72q0-34.26,0-68.52a6.73,6.73,0,0,1,2.21-5.23Q187.13,21.6,206.42,2.21c2.94-2.94,4-3,7.19.08,6.48,6.2,12.9,12.46,19.33,18.7,3.22,3.13,3.21,3.14,6.33,0q9.67-9.68,19.35-19.34c2.24-2.24,3.88-2.24,6,.09,6.26,6.83,12.58,13.62,18.66,20.61,1.62,1.86,2.35,1.51,3.82,0,6.65-6.79,13.4-13.47,20.12-20.19,2.31-2.3,3.56-2.39,5.75,0,7.38,8,14.69,16,22,24.08,4.13,4.52,8.19,9.12,12.43,13.54a6.11,6.11,0,0,1,1.89,4.66q-.06,34.37,0,68.75a22.91,22.91,0,0,0,.07,2.75c.37,3.22.26,3.38-3,3.38ZM297.1,79c0-10.58-.1-21.15.07-31.72a10.1,10.1,0,0,0-2.93-7.73c-10.33-11.1-20.44-22.4-30.62-33.63-2-2.16-2-2.17-4-.12-6.34,6.34-12.64,12.72-19,19-1.33,1.31-1.5,2.11-.05,3.45,4.28,4,8.37,8.1,12.64,12.06a8.08,8.08,0,0,1,2.7,6.48c-.08,22.07,0,44.14,0,66.2,0,2.89.11,3,3,3,11.8,0,23.6,0,35.39.05,2.35,0,3-.7,3-3C297,101.66,297.1,90.32,297.1,79ZM207,5.69a16.42,16.42,0,0,1-2.37,3.06c-2.36,1.9-3,4.2-3,7.2.11,32.11.07,64.22.07,96.33,0,.77,0,1.54,0,2.3s.47,1.19,1.27,1.35c3.94.83,5,0,5-3.9q0-51.49,0-103A4.2,4.2,0,0,0,207,5.69Zm4.69.06V112.5c0,.69,0,1.38.05,2.06s.49,1.19,1.28,1.37c3.52.78,4.64-.06,4.64-3.59,0-32-.14-64.05.15-96.08C217.86,11.29,215.42,8.78,211.7,5.75Zm101,1.45c-.08.88-.14,1.24-.14,1.61q0,52.44,0,104.88c0,1.68.58,2.22,2.26,2.32,2.34.14,2.58-1,2.58-2.92,0-32.28-.11-64.55.08-96.83C317.47,12.23,315.53,9.94,312.69,7.2ZM221.5,15.07c-.08.92-.15,1.37-.15,1.82q0,48.29,0,96.56c0,1.88.66,2.5,2.54,2.57,2.41.09,2.53-1.21,2.53-3,0-29.81-.1-59.62.09-89.43C226.51,19.52,224.49,17.47,221.5,15.07Zm9,8.55c-.72.94-.43,1.89-.43,2.76q0,26.3,0,52.6c0,11.41,0,22.82,0,34.23,0,2.09.7,2.76,2.79,2.82,2.42.07,2.7-1.06,2.69-3.07,0-26.87-.15-53.75.09-80.63C235.62,28,233.26,26,230.49,23.62ZM198.17,16c-2,1.89-4.9,2.87-4.89,6.28q.1,45.5,0,91c0,2.15.74,2.77,2.81,2.76,2.22,0,2.19-1.31,2.19-2.87q0-47.67,0-95.35C198.27,17.2,198.2,16.6,198.17,16Zm40.74,57.85c0,13.18,0,26.35,0,39.53,0,1.8.44,2.68,2.44,2.62,2.74-.09,2.87-.11,2.87-3,0-24.21-.05-48.42.06-72.62,0-2.79-.64-4.9-2.89-6.51-.67-.48-1.24-1.59-2-1.32s-.42,1.5-.42,2.28Q238.89,54.31,238.91,73.85ZM189.78,24c-3.14,2.13-4.7,4.51-4.39,8.23.35,4.18.08,8.42.08,12.63q0,34,0,68c0,1.11-.53,2.57,1.28,3,2.24.51,3.11-.15,3.11-2.5q0-43.78,0-87.57C189.88,25.33,189.83,24.81,189.78,24Zm131-7.62V112c0,.62,0,1.23,0,1.84.08,1.85,1.45,2.74,3.08,2,1.33-.61.83-1.86.83-2.85,0-29.87,0-59.74.09-89.6C324.8,20.26,323.46,18.4,320.77,16.41ZM181.68,32.58l-.52-.26c-1.4,1.83-3.9,2.73-3.9,5.73q.08,37.68,0,75.38c0,2.34.61,2.78,2.91,2.53,1.87-.21,1.59-1.57,1.59-2.74q0-39.54,0-79.06C181.79,33.63,181.72,33.1,181.68,32.58Zm-7.93,7.81-.55-.28C172,42.28,169,43.05,169,46.26q.06,33.68,0,67.34c0,1.82.67,2.37,2.43,2.41,1.94,0,2.49-.7,2.49-2.57q-.08-35.85,0-71.71C173.83,41.28,173.78,40.84,173.75,40.39ZM328.17,24.48v40.1q0,24.38,0,48.75c0,2.36.63,3,2.58,2.6s1.26-1.87,1.26-3c0-26.83,0-53.65.11-80.48C332.14,29.07,331.18,26.63,328.17,24.48ZM309.09,5.92a5.2,5.2,0,0,0-3,5.13c.05,33.8,0,67.61.08,101.41,0,1.21-1,3.36,1.43,3.39s1.48-2.12,1.48-3.33q.09-51.85,0-103.71ZM247.84,40.48a10.51,10.51,0,0,0-.21,1.34q0,36,0,72c0,1.56.58,2.13,2.16,2.21,2.29.11,2.39-1.2,2.39-2.91,0-21.85-.1-43.69.07-65.53C252.25,44,250.32,42.43,247.84,40.48Zm54.5-27.93c-3.08,2-4.71,4.42-4.52,8.19.26,5.19.07,10.41.06,15.62a3.75,3.75,0,0,0,.88,3c1.62,1.51,1.81,3.39,1.81,5.46q-.06,34,0,68c0,1-.8,3,1.12,2.87,1.56,0,.93-1.84.94-2.85q0-49,0-97.9A4,4,0,0,0,302.34,12.55Zm33.12,20V112.7c0,.53,0,1.07,0,1.61,0,1.16.6,1.63,1.72,1.64s1.78-.38,1.75-1.59c0-.46,0-.92,0-1.38,0-24.81,0-49.63.05-74.44C339,35.89,337.9,34.25,335.46,32.51Zm6.94,7.58V113c0,.62,0,1.23.07,1.84.09.87.7,1.12,1.46,1.13s1.51.11,1.74-.73a8.57,8.57,0,0,0,.17-2.27c0-21.9,0-43.8.07-65.7A7.71,7.71,0,0,0,342.4,40.09ZM294.34,20.74c-3.11,2.07-3,11.07,0,13.11Z"/><path d="M316.55,218.85c-1.63,1-3.26,2.12-4.94,3.11-1.43.85-3.08,1.78-4.61.67-2.14-1.55-2.73-.08-3.63,1.35-3.37,5.36-6.3,11-10.48,15.84-1.77,2-3.47,5.28-6.71,4.09s-2.86-4.93-2.7-7.71a64.47,64.47,0,0,1,7.15-25.58c2.78-5.52,5.53-11.06,8-16.83-2.46.59-4,2.27-5.57,3.92-7.11,7.64-12.31,16.55-17,25.78-1.23,2.4-2.43,4.82-3.68,7.21-.43.83-.93,1.9-2.05,1.57-1.58-.46-1.12-1.9-.95-3a165.76,165.76,0,0,1,4-17.48c1.25-4.76,2.92-9.44,2.94-14.44,0-.89.34-2-.68-2.55s-1.75.39-2.52.87c-8,5-12.83,17.22-10.23,26.28-2.6-1.29-2.81-3.67-2.7-5.7.54-9.53,4.21-17.5,12.48-22.82,3.11-2,5.84-.44,6.13,3.26.3,4.06-.75,7.92-1.74,11.79-1.31,5.08-2.67,10.14-3.71,15.35A221.27,221.27,0,0,1,286.28,203a51.46,51.46,0,0,1,8.76-9.58c1.31-1.09,2.85-2.65,4.67-1.31s1,3.25.29,4.85c-2.19,4.93-4.48,9.82-6.77,14.71-3.77,8-6.55,16.34-6.82,25.3-.05,1.67-.85,4.19.87,4.8,1.54.54,2.85-1.71,4-3,6-7,10.26-15.13,15-22.94,1-1.71,1.85-3.55,3.31-5,.87-.83,1.91-1.61,3.08-.58s.45,2-.18,2.84a40.41,40.41,0,0,1-3.24,3.68c-1.06,1.1-2.79,2.38-1.77,3.78,1.33,1.82,2.93-.08,4.24-.81a44.26,44.26,0,0,0,4-2.84c.85-.6,1.69-1.63,2.78-1.19,1.4.56.28,1.85.42,2.8a6.23,6.23,0,0,0,.55,2.56c1.26-2.58,2.49-5.17,3.79-7.73.36-.7.8-1.7,1.75-1.43,1.27.36.74,1.49.61,2.38-.3,1.95-1.28,3.79-.89,6.13,1.15-.79,1.32-2,1.84-2.91s1.32-1.92,2.48-1.57c4,1.19,5.9-.8,7-5.05,1.46,2.92-.39,4.94.11,7.85,1.43-2.57,2.52-4.61,3.69-6.61.57-1,1-2.46,2.47-2.06,1.68.46.94,1.95.62,3-.92,2.91,2.45,3,3.22,5,.47,1.21,2.47.36,3.38-.5,2.87-2.72,6.65-4,9.65-6.48.55-.45,1.14-1.09,1.8-.51a1.88,1.88,0,0,1,.23,1.62c-.56,1.91-1.31,3.77-1.87,5.68-.25.87-.61,2.08.19,2.66,1,.69,1.69-.43,2.35-1,2-1.79,4-3.64,4.81-6.37.28-.92.47-2.1,1.81-2.39.71,1.72-1.16,3-.66,5,1.92-1.76,3.3-1.51,4,1,.55,2.08,2,1.91,3.63,1.39,1.43-.45,2.43-1.85,4.83-1.94a7.81,7.81,0,0,1-5.7,3.9c-2.47.48-3.85-1.09-4.85-3.57-.93,1.52-1.54,2.64-2.27,3.67s-1.42,3-2.95.63c-.66-1-1.19-.21-1.69.18-1.31,1-2.59,2.31-4.39,1.28s-1-2.91-1.12-4.48a6,6,0,0,0-.25-1c-1.38.34-1.71,1.64-2.55,2.4-1.06,1-2.24.77-3.51,1-3.44.51-6.62-.64-9.16-1.83-3.89-1.82-3.91,1-5.14,2.71-.41.58-.83,1.22-1.65,1.12-1.05-.13-1.23-1-1.26-1.84-.05-1.4.31-2.88-1.95-2.89-2,0-3.83-.17-4.5,2.27a7,7,0,0,1-.69,1.62c-.68,1.16-1,3-2.74,2.77s-1.45-2.13-1.91-3.48c-1.67.65-1.42,3.78-3.55,3.25C315.92,223.3,317.85,220.54,316.55,218.85Z"/><path d="M195.14,218.27c-1.48-.92-2.59-.16-3.8.71-2.1,1.51-4.29,1.91-6.4,0-.52-.48-1-1.16-1.78-.66-1.72,1.09-2.5-.05-3.11-1.87-.8,1.41-1.25,2.35-1.83,3.21-1.16,1.7-1.88,4.92-4.21.51-1.12-2.1-3.62-.57-5.2.42s-2.88,2.4-4.88.55c-1-.91-1.61.42-2.17,1.09-1.36,1.61-2.65,3.29-4,4.89-.71.84-1.63,1.46-2.78.87a2.33,2.33,0,0,1-1.12-2.74c.67-3,1.49-5.89,2.55-10-4.32,2.83-8.71,1.91-12.86,2.84-1.88.42-2.31,1.78-2.78,3.23a87,87,0,0,1-5.28,13.42,18.08,18.08,0,0,1-5.2,6.58c-3.12,2.25-6.32,1-7.12-2.76-.62-2.87-.92-5.75,2.61-8.19-.49,3.08-1.29,5.49-.72,8,.62,2.74,1.43,3.13,3.72,1.38,2.71-2.08,4.2-5,5.49-8.07,1.38-3.23,2.62-6.53,3.86-9.82.75-2,.65-3.22-2.1-2.45a73.54,73.54,0,0,1-9.49,1.94c2.44-2.53,5.78-2.8,8.87-3.35s4.74-2.11,5.56-5.27a121.48,121.48,0,0,0,3.43-19.37c.11-1.22.52-2.74-.79-3.58s-2.48.2-3.55.83a43.66,43.66,0,0,0-16.25,16.7c-1,1.87-2.37,3.92-.68,6.27-2.68-1.18-2.25-3.3-1.51-5.34,2.12-5.91,6.32-10.37,10.72-14.63a30.71,30.71,0,0,1,7.54-5.15c3.77-1.91,6.16-.55,6.41,3.71.41,6.89-1.43,13.48-2.79,20.14-.26,1.24-2,3.69.08,3.68s5.77,1.32,7-2.35a27,27,0,0,1,2.38-5.84c.56-.91,1.25-1.95,2.49-1.44s1.39,1.75,1,3-.85,2.67-1.29,4.06c1.17.8,2.54-1.16,3.55.16s-.08,2.68-.44,4c-.53,1.92-1.15,3.81-1.72,5.72a2.36,2.36,0,0,0,.1,1.57,47.19,47.19,0,0,0,7.77-9.44,6.18,6.18,0,0,0,.28-.64c1.12-2.24,2.37-5,5.28-4.15,3.48,1,1.65,4,1.33,6.38,4.15.67,4-3.32,5.63-5.83,1.25,2.76-.63,4.81-.06,7.46,1.52-2.65,2.81-4.94,4.15-7.2.47-.8,1-1.75,2.19-1.27s.9,1.61.55,2.45c-1.34,3.24,2.18,3.78,3.31,5.51.94,1.43,2.86-.46,4.26-1.23,2.12-1.16,2.28-4.36,5.34-5.11-.28,2.23-3,3.83-1,6Z"/><path d="M195.67,217.76c1.21.51,1.25,1.92,2.11,2.82,5.68-3.12,6.62-8.92,8.08-14.36.4-1.53-.93-1.33-1.83-1.12a35.83,35.83,0,0,1-8.77.44,4.19,4.19,0,0,1-4.29-2.91c5.24,2.33,10,.94,14.82.24,1.35-.19,1.69-1.48,2.1-2.59.61-1.68,1.24-3.34,2.16-5.81a6.28,6.28,0,0,1-.07,5c-.61,2-.58,3,2.16,2.5,5.89-1,11.84-1.62,17.77-2.33a22.87,22.87,0,0,1,4.22-.06c1.67.1,2.63.91,2,3.21-1.37-1.62-3.06-1.54-4.75-1.31-6.73.89-13.46,1.84-20.21,2.69-1.54.2-2.73.68-3.15,2.28-2.76,10.55-5.8,21-7.46,31.82a16.81,16.81,0,0,0,0,2c1.5-.5,1.73-1.73,2.15-2.65q4.64-10.06,9.16-20.19a18.79,18.79,0,0,1,4.36-6.74c.84-.74,1.81-1.28,2.8-.33a1.84,1.84,0,0,1,0,2.57,37.62,37.62,0,0,1-3,3.46c-1.18,1.25-3.27,2.56-1.67,4.3,1.36,1.48,3-.4,4.26-1.24,2.49-1.66,4.84-3.52,7.33-5.36.72,1.52-.15,2.56-.26,3.68s-1,2.26,0,3c1.15.82,2.22-.37,3.1-1,2.9-2.15,6.1-4.06,7.07-8,.13-.52.45-1.09,1.57-.89-.57,1.87-1.14,3.72-2.09,6.85,2.49-3.38,4.15-4.19,5.26-.43.56,1.87,2.22,1.41,3.55.83a21.36,21.36,0,0,1,4.18-1.74c-.87,2.33-2.86,3.21-5.08,3.72s-3.78-.7-4.68-2.75c-1.6.43-1.8,1.88-2.52,2.87-.93,1.28-1.81,3.11-2.81.09-.43-1.31-1.1-.9-1.84-.41s-1.35.94-2.05,1.36c-3.68,2.2-4.91,1.78-6.5-2.38-1.59,1-3.1,2.11-4.72,3-1,.55-2.42,1.4-3.24,1.07-3.73-1.49-4.23,1.32-5.27,3.55-2.17,4.68-4.29,9.39-6.59,14-.62,1.25-1.32,3.28-3.19,2.63s-1.51-2.71-1.41-4.32c.33-5.65,1.82-11.09,3.12-16.56.13-.56.22-1.13.43-2.19-2.58,1.74-4.38,3.49-5,6.24a17.39,17.39,0,0,1-3.55,7.57c-.62.74-1.38,1.45-2.4.75-.81-.55-.65-1.42-.37-2.24a25.1,25.1,0,0,1,3.45-6.51c1.7-2.37,2.24-4.86,1-7.6Z"/><path d="M422.6,163.62c0,9.25-6.26,15.83-14.9,15.67-8.87-.16-15.21-6.87-15.15-16,.06-9,6.21-15.14,15.06-15.1C416.69,148.21,422.61,154.31,422.6,163.62Zm-4.44-.41a38.53,38.53,0,0,0-.41-4.39,10.62,10.62,0,0,0-9.92-8.88c-4.74-.16-8.49,2.62-10,7.76a20.18,20.18,0,0,0,.54,13.41,10,10,0,0,0,18.72-.16C418.06,168.61,418.05,166.15,418.16,163.21Z"/><path d="M253.48,162.92c.33-9,6.57-15,15.38-14.75,9.08.29,15.18,7,14.81,16.17-.36,8.73-6.85,15.18-15.05,14.95C259.53,179,253.15,172.14,253.48,162.92Zm25.61.69a15.82,15.82,0,0,0-1.34-7.44,9.87,9.87,0,0,0-9.38-6.2,9.27,9.27,0,0,0-9.18,6.37,20.19,20.19,0,0,0,.07,14.75,9.88,9.88,0,0,0,9.62,6.38,9.64,9.64,0,0,0,9.23-6.86A17.11,17.11,0,0,0,279.09,163.61Z"/><path d="M176.18,172.61c0-6.79,0-12.52,0-18.26,0-2.29-1.09-3.95-3.93-5.14,3.69-.79,6.52-.4,9.57-.16-4.29,1.92-3.5,5.81-3.66,9.08-.28,5.39,0,10.8-.13,16.19,0,1.43.84,3.55-.79,4.14-1.9.69-2.58-1.62-3.54-2.81-5.37-6.64-10.65-13.37-16.38-20,.37,7.66-2.23,15.66,2.69,22.91-2.26.46-5.11.15-9,0,4.82-2.57,4.11-6.43,4.13-10,0-4.46,0-8.92,0-13.38,0-2.48-.5-4.69-4.12-5.85,3.8-1,6.06-.81,8.11,1.87C164.44,158.18,170,165,176.18,172.61Z"/><path d="M97.49,172.65c1.67,5,1,6.11-3.62,6.13-5.5,0-11,0-16.8-.29,3.89-2,3.25-5.41,3.27-8.58,0-4.93,0-9.85,0-14.78,0-2.44-.13-4.79-3.4-5.51l.39-.81c5.87,0,11.78-.42,17.59.18,3,.31,1.64,3.4,1.47,6.52-2.43-4-5.59-4.94-9.19-5-2.06,0-3.09.67-3,2.83.06,1.75-.11,3.53,0,5.27.12,1.48-.85,3.8,1.54,4s5.12.45,6-2.86c.07-.28.38-.5.91-1.17a18.92,18.92,0,0,1,.16,9.41c-1.45-.32-1.14-1.62-1.86-2.2a6.06,6.06,0,0,0-5.35-1c-1.92.42-1.25,2.22-1.42,3.53a1.37,1.37,0,0,0,0,.35c.53,2.71-1.41,6.17,1.81,8C88.61,178.21,94.79,175.85,97.49,172.65Z"/><path d="M139.43,178.62H129.8c3.16-2.44,1.8-4.92.87-7.35s-3.14-1.49-4.88-1.64c-1.4-.11-2.81,0-4.22,0-1.88,0-3.95-.29-4.43,2.3-.42,2.24-2.64,4.84,2.48,6.36a32.28,32.28,0,0,1-9.27.35c7.07-7.38,7.7-17.32,11.23-26,.63-1.55-.46-2.33-1.41-3.2,5-1.6,6.16-1.08,7.88,3.51q3.52,9.39,7,18.8C136,174.24,136.89,176.77,139.43,178.62Zm-15.16-25-.78-.08c-.81,2.3-1.63,4.58-2.43,6.88-2.78,8-2.7,8.07,6,7.4,1.9-.15,2.18-.75,1.55-2.39C127.12,161.53,125.71,157.58,124.27,153.64Z"/><path d="M489.29,154.26c-1.62-.53-2.08-2-3.41-2.63-6.1-3-9.12-1.25-8.95,5.4.05,1.9-1.35,4.8,1.32,5.56,2.9.82,5.8-.1,7.25-4.28a30.12,30.12,0,0,1,.26,9.48c-1.28-.22-1.15-1.5-1.9-2a6.6,6.6,0,0,0-5.73-.91c-2,.57-1.31,2.58-1.21,3.95.21,2.78-1,6.82,2.21,7.79a9.6,9.6,0,0,0,11-3.62c1.87,4.37,1,5.78-3.44,5.8-5.05,0-10.1,0-15.15,0a5.24,5.24,0,0,1-1.12-.25c4.25-4.29,2.95-9.74,3-14.74s1.37-10.28-3.13-14.92c6,0,11.83-.38,17.56.15C491,149.27,488.74,152.43,489.29,154.26Z"/><path d="M452.3,157c-1.45-.5-1.12-1.62-1.4-2.45a6.23,6.23,0,0,0-3.93-4.2,4.8,4.8,0,0,0-5.89,1.85c-1.5,2-.9,4,.67,5.74,2.26,2.49,5.43,3.65,8.15,5.48,3.15,2.12,5.19,4.8,4.74,8.75-.37,3.26-2.46,5.29-5.47,6.25-4.1,1.3-8.15,1.12-11.71-1.57-1.42-1.07-1.26-2.79.05-6.94,1.79.43,1.11,2.11,1.56,3.17a6.57,6.57,0,0,0,8,4c3-.79,4.25-2.73,3.9-5.73-.24-2.05-1.65-3.31-3.26-4.36-2.35-1.54-4.75-3-7.09-4.57a7.71,7.71,0,0,1-3.63-8.49c.71-3.56,3.53-4.73,6.64-5.37a11.33,11.33,0,0,1,3.48-.23C453.57,149,454.38,150.4,452.3,157Z"/><path d="M44.58,213.87H4.84c-1,0-2.11,0-3.16-.08-.78-.07-1.81-.1-1.67-1.28.11-.85,1-.92,1.67-1,.93-.06,1.87,0,2.81,0q40.44,0,80.89,0c1.47,0,4.14-.89,4.15,1.12s-2.67,1.17-4.15,1.17C71.78,213.9,58.18,213.87,44.58,213.87Z"/><path d="M345.56,175.14c-3.24,3.34-7.62,4.13-12,4.08-9.68-.1-16-7.84-14.95-17.76,1-8.9,8.78-14.59,17.95-13a54.38,54.38,0,0,1,6.12,1.57,2.61,2.61,0,0,1,2.16,2.47c0,1.21.77,2.94-.72,3.44-1.19.4-1.27-1.37-1.81-2.19-3.59-5.4-13.52-5.16-16.94.68a17.48,17.48,0,0,0-.28,17.82c2.45,4.58,7.74,6.06,14,4.24,2.07-.61,4.05-1.55,6.07-2.34C345.28,174.48,345.42,174.81,345.56,175.14Z"/><path d="M27.39,156.58c-4.67-6.06-8.87-7.71-14.21-6-.11,0-.23,0-.34.09-5.08,1.8-7.92,8.77-6.63,16.31,1.1,6.42,4.88,9.87,10.68,10.1,4.06.16,7.69-1.21,11.16-3a1.48,1.48,0,0,1-.6,2.16C21.29,181,10.19,180,5.23,174.14a16.36,16.36,0,0,1,1.34-22.3c5.87-5.34,14.8-4,19.87-1.38C28.78,151.67,27.91,154,27.39,156.58Z"/><path d="M240.78,154.73c-1.26-1.28-1.82-2.59-3.17-3.29-4.5-2.32-6.79-1.05-6.79,3.9,0,5.28,0,10.56,0,15.84,0,4.66.1,4.72,4.16,7.32H223.29c4-1.44,3.72-4.77,3.68-8.07-.06-5.16,0-10.32,0-15.48,0-4.53-1.49-5.49-5.85-3.89a6.2,6.2,0,0,0-3.79,3.66c-2.06-4.43-1.14-6,3.29-6q8.08,0,16.19,0C241.56,148.74,242.08,149.48,240.78,154.73Z"/><path d="M379.39,172.88c1.71,4.63.95,5.88-3.59,5.9-5,0-10.07,0-16.36,0,4.24-2.43,3.67-5.65,3.68-8.66,0-5.17,0-10.33-.06-15.49,0-2.14,0-4.3-3.76-5.31,4.35-.89,7.43-.57,11.32-.42-3.76,2.25-3.54,5.49-3.65,8.51-.15,4.45-.15,8.92,0,13.38.07,2.13-.48,5.09,2,5.89a8.85,8.85,0,0,0,8.85-2.06C378.38,174.1,378.44,173.08,379.39,172.88Z"/><path d="M43,148.88H53.62c-3.17,1.85-3.35,4.27-3.33,6.83.06,5.75.12,11.51,0,17.26-.07,3.31,1.38,4.35,4.52,4s5.71-1.24,7.36-4.15c2,4.07,1.09,5.9-2.92,5.93-5.25,0-10.5,0-16.13,0C47.87,174,47.91,152.81,43,148.88Z"/><path d="M501.05,146.16c3.95-.6,7.7-2,10.55,1.81,1.28.09,1.09-2.75,2.72-1.71,1.06.68.57,2.18.54,3.31-.05,1.32.48,2.78-.86,4.19-.73-1.54-1.6-3.1-3.29-2.9-1.48.16-.1,2.13-1.48,3-1.45-1.13-.77-2.85-1-4.28-.13-.91,0-2.13-1.21-2.2-1.55-.1-1.33,1.28-1.46,2.28-.17,1.29.35,2.78-1,3.92C502.57,151.44,506,147,501.05,146.16Z"/><text class="cls-1" transform="translate(100.83 215.35)">A</text><text class="cls-2" transform="translate(387.59 214.67)">COM<tspan class="cls-3" x="53.33" y="0">P</tspan><tspan class="cls-4" x="66.24" y="0">ANY</tspan></text></g></g></svg>