<svg xmlns="http://www.w3.org/2000/svg" viewBox="0 0 147.6 134.36"><defs><style>.cls-1{fill:#495653;}</style></defs><g id="Layer_2" data-name="Layer 2"><g id="Layer_1-2" data-name="Layer 1"><path class="cls-1" d="M132.9,61.42c-.17-.48-.18-.68-.27-.73-7.28-4.38-7.95-11.21-7.4-18.79.42-5.69,0-11.43.13-17.13.09-3-.85-4.4-4-4.15-2.49.2-5,0-7.52,0s-5-.3-5.07-3.53,2.27-3.74,4.88-3.74c4.59,0,9.19.1,13.79,0,3.75-.1,5.26,1.59,5.22,5.29-.09,9.19.08,18.39-.08,27.58a7.91,7.91,0,0,0,3.09,6.85c3.34,2.74,6.49,5.7,9.75,8.53,1.57,1.37,2.71,2.92,2,5.09s-2.77,2.38-4.8,2.45c-10,.34-10,.36-10,10.24q0,24.45,0,48.9c0,5.29-.76,6.05-6.06,6.06q-52.65,0-105.31,0c-5.67,0-6.8-1-6.77-6.88.1-17.69.16-35.38.55-53.06.09-4.3-1.22-5.89-5.42-5.3a35.27,35.27,0,0,1-4.6,0c-2,0-4-.15-4.81-2.43s.4-3.71,2-5.09c6.8-6,13.58-12,20.37-18Q45.63,23.37,68.68,3.07C73.29-1,74.26-1,78.88,3c8.8,7.7,17.64,15.36,26.45,23.07,1.52,1.33,2.75,2.28,5.12,1.23,3.13-1.38,5.09.1,5.38,3.5.14,1.52,0,3.06,0,4.59,0,2,0,4-2.28,4.93s-3.74-.31-5.26-1.62C97.72,29.49,87.06,20.31,76.5,11c-1.88-1.66-3.11-2-5.22-.18Q44.1,35,16.73,58.9c-.72.64-1.57,1.14-2.25,1.64.46.74.57,1.12.72,1.14,7.05.82,7.05.81,7.05,8.16,0,17.41.07,34.82-.09,52.24,0,3.66.79,5.11,4.84,5.09q46.8-.26,93.61,0c4.08,0,4.84-1.48,4.8-5.11-.15-17.14-.08-34.27-.09-51.41C125.32,62.63,125.31,62.63,132.9,61.42Z"/></g></g></svg>