<svg xmlns="http://www.w3.org/2000/svg" viewBox="0 0 147.6 134.36"><defs><style>.cls-1{fill:#495653;}</style></defs><g id="Layer_2" data-name="Layer 2"><g id="Layer_1-2" data-name="Layer 1"><path class="cls-1" d="M132.9,61.42c-.17-.48-.18-.68-.27-.73-7.28-4.38-7.95-11.21-7.4-18.79.42-5.69,0-11.43.13-17.13.09-3-.85-4.4-4-4.15-2.49.2-5,0-7.52,0s-5-.3-5.07-3.53,2.27-3.74,4.88-3.74c4.59,0,9.19.1,13.79,0,3.75-.1,5.26,1.59,5.22,5.29-.09,9.19.08,18.39-.08,27.58a7.91,7.91,0,0,0,3.09,6.85c3.34,2.74,6.49,5.7,9.75,8.53,1.57,1.37,2.71,2.92,2,5.09s-2.77,2.38-4.8,2.45c-10,.34-10,.36-10,10.24q0,24.45,0,48.9c0,5.29-.76,6.05-6.06,6.06q-52.65,0-105.31,0c-5.67,0-6.8-1-6.77-6.88.1-17.69.16-35.38.55-53.06.09-4.3-1.22-5.89-5.42-5.3a35.27,35.27,0,0,1-4.6,0c-2,0-4-.15-4.81-2.43s.4-3.71,2-5.09c6.8-6,13.58-12,20.37-18Q45.63,23.37,68.68,3.07C73.29-1,74.26-1,78.88,3c8.8,7.7,17.64,15.36,26.45,23.07,1.52,1.33,2.75,2.28,5.12,1.23,3.13-1.38,5.09.1,5.38,3.5.14,1.52,0,3.06,0,4.59,0,2,0,4-2.28,4.93s-3.74-.31-5.26-1.62C97.72,29.49,87.06,20.31,76.5,11c-1.88-1.66-3.11-2-5.22-.18Q44.1,35,16.73,58.9c-.72.64-1.57,1.14-2.25,1.64.46.74.57,1.12.72,1.14,7.05.82,7.05.81,7.05,8.16,0,17.41.07,34.82-.09,52.24,0,3.66.79,5.11,4.84,5.09q46.8-.26,93.61,0c4.08,0,4.84-1.48,4.8-5.11-.15-17.14-.08-34.27-.09-51.41C125.32,62.63,125.31,62.63,132.9,61.42Z"/><path class="cls-1" d="M73.55,119.31c-12,0-23.95,0-35.93,0-5.12,0-5.84-.76-5.92-5.77,0-1.39,0-2.78,0-4.18,0-10.66,1.75-12.83,12.18-15.61,4-1.07,8.06-2.23,12-3.69,5.89-2.21,7.3-7.3,3.33-12.26-6-7.49-6.87-15.93-4.9-24.87,1.3-5.93,5.17-9.75,10.9-11.62a28.08,28.08,0,0,1,15.26-.51c8.52,2,13.19,7.94,13.7,16.7.44,7.63-.93,14.59-6,20.66-3.62,4.29-2,9.58,3.29,11.79,4.77,2,9.81,3.1,14.76,4.54,7.69,2.23,9.75,5,9.75,12.83,0,13.08,1.12,12-11.82,12Q88.81,119.29,73.55,119.31Zm0-7.28q15,0,30.05,0c4.92,0,5.16-.41,5-5.18-.11-3.14-1.92-4.38-4.56-5.08-5.64-1.5-11.31-2.9-16.7-5.23C83.91,95,81,92.9,79.84,89.21c-1.78-5.83-2.83-11.38,2.73-16.4C87.42,68.43,88.18,57.93,85,52.5c-2.64-4.49-9.24-6.18-16.62-4.27a8.59,8.59,0,0,0-6.64,6.28c-2,7.41-1.46,14.41,4.69,19.93a8.08,8.08,0,0,1,2.67,6.67c-.12,9.2-2.6,13.11-11.32,16.32-5,1.82-10.07,3.18-15.15,4.59-4.36,1.21-3.83,4.62-3.57,7.76.28,3.34,3.07,2.18,4.9,2.2C53.84,112.08,63.72,112,73.59,112Z"/></g></g></svg>