<svg xmlns="http://www.w3.org/2000/svg" viewBox="0 0 136.55 136.53"><defs><style>.cls-1{fill:#495653;}</style></defs><g id="Layer_2" data-name="Layer 2"><g id="Layer_1-2" data-name="Layer 1"><path class="cls-1" d="M81.87,136.51H30.94c-3,0-3.59-.56-3.59-3.53q0-17.31,0-34.62a20.38,20.38,0,0,1,15-20.19c4.49-1.33,9-2.52,13.53-3.76a4.88,4.88,0,0,0,2.71-1.62,6.26,6.26,0,0,1,5-2.33c1.8,0,3.59,0,5.39,0,.58,0,1.31.24,1.49-.65a1.5,1.5,0,0,0-.86-1.74A20.4,20.4,0,0,1,59.16,50c.05-1.3-.14-1.94-1.69-2.21a8.52,8.52,0,0,1-7.08-6.56,8.47,8.47,0,0,1,2.82-9.34,3.76,3.76,0,0,0,1.41-3.41c-.13-10.09,4-18.13,12.23-23.79,14.71-10.06,35.19-3.1,41,13.77.78,2.26.28,2.07,2.94,2.07,3.26,0,6.52,0,9.79,0a6.76,6.76,0,0,1,6.9,6.92q0,2.13,0,4.26c0,1.78-.84,2.62-2.61,2.63-3.59,0-7.19,0-10.78,0-1,0-1.2.16-.83,1.18A9.11,9.11,0,0,1,106,47.86c-1.06.17-1.31.56-1.29,1.54.16,8.25-3.39,14.46-10.43,18.69a1.49,1.49,0,0,0-.87,1.73c.18.88.91.66,1.49.66,1.75,0,3.5,0,5.25,0A6.53,6.53,0,0,1,105.5,73a3.64,3.64,0,0,0,2,1.24c4.43,1.21,8.85,2.43,13.25,3.69,8.76,2.5,14,8.18,15.64,17.19a15,15,0,0,1,.17,2.68q0,17.81,0,35.62c0,2.38-.73,3.09-3.17,3.09ZM70.7,107c0,1.68,0,3,0,4.32a2.24,2.24,0,0,1-2.36,2.45c-3,0-6,0-9.08,0a2.25,2.25,0,0,1-2.36-2.45c0-1,0-1.89,0-2.84s-.33-1.1-1.13-.63a8.06,8.06,0,0,1-3.86,1.31c-1.48,0-1.65.69-1.64,1.93,0,6.29.06,12.58,0,18.87,0,1.44.4,1.84,1.84,1.83,11-.06,22,0,33.05,0h27c.73,0,1.57.2,1.57-1,0-6.81,0-13.62,0-20.43,0-.5,0-1-.7-1a11.93,11.93,0,0,1-5.1-1.58c-.71-.39-.8,0-.8.59,0,1,0,1.89,0,2.84,0,1.84-.86,2.66-2.73,2.67q-4.18,0-8.37,0c-1.87,0-2.68-.83-2.71-2.68,0-1.26,0-2.51,0-4.08a16.72,16.72,0,0,1-11.15,4.52A16.37,16.37,0,0,1,70.7,107ZM82,34.33H73.73c-2.79,0-5.58,0-8.37,0-.81,0-1.51,0-1.48,1.14.13,5.48-.25,11,.24,16.44a15.55,15.55,0,0,0,13.8,13.81,43.2,43.2,0,0,0,8.2,0A15.66,15.66,0,0,0,99.79,52.06c.48-5.38.08-10.77.24-16.16,0-1.27-.39-1.61-1.62-1.6C92.92,34.36,87.44,34.33,82,34.33ZM32.1,114.11h0c0,5.3,0,10.59,0,15.89,0,1.33.32,1.83,1.73,1.79,3.26-.09,6.52,0,9.79,0,1.92,0,1.92,0,1.92-2,0-7.28,0-14.56,0-21.84,0-2.83.59-3.44,3.37-3.45h.42c4.8,0,7.54-2.8,7.55-7.63,0-5.39,0-10.78,0-16.17,0-1.36-.42-1.45-1.56-1.12-3.68,1.07-7.38,2-11.07,3.07a16.39,16.39,0,0,0-4.44,1.83c-5.2,3.29-7.64,8.09-7.71,14.15C32.06,103.8,32.1,109,32.1,114.11Zm99.7.07v-7.8c0-2.6,0-5.2,0-7.8-.06-7-3.9-13-10.07-15.2-4.44-1.62-9.08-2.61-13.62-3.9-.82-.24-1.08,0-1.08.88,0,5.77,0,11.54,0,17.3a6.44,6.44,0,0,0,2.45,5.22,8.43,8.43,0,0,0,5.58,1.65c2.62,0,3.29.65,3.29,3.24,0,7.51,0,15,0,22.55,0,1.1.33,1.49,1.45,1.47,3.5-.06,7-.07,10.5,0,1.21,0,1.51-.44,1.5-1.57C131.78,124.87,131.8,119.53,131.8,114.18Zm-33-84.6c1.56,0,3.13,0,4.69,0,.78,0,1.15-.29,1.09-1.08-.08-1.09-.15-2.17-.23-3.25-1-12.78-13.56-22.32-26.2-20.07-9.82,1.75-18.78,10.1-18.79,23,0,1,.28,1.44,1.36,1.42,2.88-.06,5.77-.07,8.65,0a1.48,1.48,0,0,0,1.71-1.24,10.8,10.8,0,0,1,5-6.29,11.42,11.42,0,0,1,16.72,6.13,1.71,1.71,0,0,0,2,1.4C96.13,29.52,97.46,29.59,98.78,29.58ZM70.8,76c0,.07-.09.1-.09.14V92.3a34.11,34.11,0,0,0,.22,5,11.12,11.12,0,0,0,22-.2c.57-5.51.15-11,.26-16.58,0-1.48,0-3,0-4.85-1.93,5.29-5.27,8.34-10.58,8.62C76.65,84.56,72.9,81.41,70.8,76ZM98,92c0,4.73,0,9.46,0,14.19,0,3.26-.55,2.83,3,2.91,1.06,0,1.39-.37,1.39-1.41,0-9.83,0-19.66,0-29.5a3.82,3.82,0,0,0-.25-1.53,3,3,0,0,0-3.38-1.42c-1.2.31-.68,1.32-.69,2C97.93,82.15,98,87.07,98,92Zm-32,.27c0-5.19,0-10.39,0-15.59,0-1.24-.45-1.55-1.58-1.46-2,.16-2.77,1-2.77,3.3q0,13.89,0,27.79c0,3.13-.44,2.68,2.8,2.8,1.31,0,1.56-.49,1.55-1.67C65.93,102.37,66,97.31,66,92.25Zm9.28-20.17c0,5,3.56,8.07,8.14,7.19,3.2-.62,5.28-3.65,5.29-7.59,0-1.08-.29-1.37-1.4-1.23a56.85,56.85,0,0,1-10.19.09C75.23,70.43,75.23,70.3,75.24,72.08ZM116,29.58h5.66c.56,0,1-.06,1.1-.78.34-2.16-.72-3.52-2.91-3.55q-3.82,0-7.64,0c-3.27,0-2.8-.51-2.88,3,0,1.09.42,1.38,1.43,1.35C112.47,29.55,114.22,29.58,116,29.58ZM82.08,25.31a6.74,6.74,0,0,0-5.8,3.19c-.46.74-.39,1.1.58,1.09q5.1,0,10.18,0c1,0,1.06-.35.59-1.08A6.93,6.93,0,0,0,82.08,25.31Zm22.68,13.48c0,1.13,0,2.26,0,3.39,0,.63.12,1,.89.84a4.34,4.34,0,0,0,.15-8.45c-.72-.14-1.07,0-1,.82C104.79,36.52,104.76,37.66,104.76,38.79Zm-45.61-.08c0-1.13,0-2.26,0-3.39,0-.68-.2-.93-.93-.79a4.7,4.7,0,0,0-3.39,4.22A4.65,4.65,0,0,0,58.19,43c.68.13,1,0,1-.75C59.13,41.07,59.14,39.89,59.15,38.71Z"/><path class="cls-1" d="M23,92.19q0,21.15,0,42.28c0,.81.51,2-1.14,2.05-2.14.07-3.32-.5-3.53-2a12.49,12.49,0,0,1,0-1.84V50c0-2,0-2-2-2H3.1c-2.27,0-3.07-.87-3-3.13a6.81,6.81,0,0,1,1.3-3.69,3.76,3.76,0,0,0,0-4.72,7.56,7.56,0,0,1-.06-8.79,4.1,4.1,0,0,0,0-5,7.65,7.65,0,0,1-.47-7.83c.32-.7.39-1.21-.21-1.76a1.34,1.34,0,0,1-.46-.85C.15,9.57-.37,6.88.63,4.34A6.22,6.22,0,0,1,6.62.1Q25.21,0,43.79.1a6.64,6.64,0,0,1,6.45,6.34c.07,1.65,0,3.31,0,5a2.39,2.39,0,0,1-1.63,2.41c-2.1.85-3.5,4.42-2.29,6.28,2.2,3.4,2.26,6.69,0,10.06a3.15,3.15,0,0,0,.06,3.73,8.12,8.12,0,0,1,0,9.8,4.7,4.7,0,0,0-.65,1.86c-.34,1.83-1,2.4-2.87,2.41-3,0-6.06.07-9.08,0-1.41-.05-1.73.46-1.73,1.79.06,9.36,0,18.72,0,28.09,0,1.94,0,2-2,2-3.21,0-2.78.27-2.78-2.82,0-9.08,0-18.16,0-27.24,0-1.35-.36-1.82-1.75-1.77-3,.12-2.62-.29-2.62,2.7Q23,71.41,23,92.19Zm2-83H35.25c3,0,6,0,8.93,0,1.08,0,1.39-.39,1.36-1.41-.06-2-.88-2.94-3-2.94q-17.37,0-34.74,0a3.75,3.75,0,0,0-1.66.31,3,3,0,0,0-1.3,3.33c.3,1.19,1.31.67,2,.68C12.94,9.17,19,9.15,25,9.15ZM39.25,43.21a2.19,2.19,0,0,0,2.81-1.74,3,3,0,0,1,.43-.73,3.27,3.27,0,0,0,0-4,8.09,8.09,0,0,1,0-9.66,3.16,3.16,0,0,0,.12-3.73,8.31,8.31,0,0,1-.86-8.7c.18-.4.25-.78-.36-.78a17.84,17.84,0,0,0-3.66.13C37,14.21,37,15.35,36.48,16a3.67,3.67,0,0,0,0,4.7,7.57,7.57,0,0,1,.06,8.79,4.05,4.05,0,0,0,0,5,7.71,7.71,0,0,1,.92,6.79C36.86,43.23,36.82,43.22,39.25,43.21Zm-30.86,0c.66-.13,1.54.31,2.22-.29a5.17,5.17,0,0,0,.94-6.65,7.57,7.57,0,0,1-.06-8.44,4.32,4.32,0,0,0,0-5.34,7.94,7.94,0,0,1-.92-6.27c.15-.76,1.08-1.59.52-2.15-.42-.41-1.52-.19-2.32-.16s-1.42-.28-2,.37c-2,2.27-2.17,4.17-.71,6.8a7.61,7.61,0,0,1-.11,8.32,4.21,4.21,0,0,0,0,5.22,7.57,7.57,0,0,1,.8,6.66c-.58,1.94-.62,1.93,1.37,1.93Zm20.49,0c.63-.11,1.45.27,2.1-.24a5.28,5.28,0,0,0,1.12-6.51c-1.81-3-2-6-.05-8.93a4,4,0,0,0,0-4.85,7.61,7.61,0,0,1-.63-7.56c.47-1.11.17-1.31-.86-1.24-.75,0-1.51,0-2.27,0a1.31,1.31,0,0,0-1,.31,5.17,5.17,0,0,0-.86,6.67,7.62,7.62,0,0,1,0,8.44,4.23,4.23,0,0,0,0,5.22,7.68,7.68,0,0,1,.84,6.66C26.65,43.22,26.61,43.21,28.88,43.21ZM19.23,13.9c-.66.15-1.53-.33-2.2.32a5.2,5.2,0,0,0-.91,6.55A8,8,0,0,1,16,29.61a3.81,3.81,0,0,0,0,4.72,8.26,8.26,0,0,1,1.13,6.52c-.14.77-1.08,1.66-.51,2.16s1.62.2,2.47.18c.62,0,1.31.24,1.84-.41,2-2.41,2.11-4,.61-6.83a7.62,7.62,0,0,1,.18-8.21,4.19,4.19,0,0,0,0-5.22,7.8,7.8,0,0,1-.82-6.81c.51-1.82.55-1.81-1.42-1.81Z"/><path class="cls-1" d="M82,52.29c1.84,0,3.68,0,5.52,0,.94,0,1.34.28,1.36,1.29.06,2.68-.65,3.46-3.37,3.46s-5.19,0-7.78,0a2.94,2.94,0,0,1-2.6-4.26c.26-.58.77-.46,1.21-.47H82Z"/><path class="cls-1" d="M75.24,41.07c0,2.34,0,2.34-2.4,2.34s-2.35,0-2.35-2.4,0-2.35,2.41-2.35S75.24,38.66,75.24,41.07Z"/><path class="cls-1" d="M93.42,41.07c0,2.34,0,2.34-1.84,2.35-2.91,0-2.91,0-2.91-2,0-2.76,0-2.78,2-2.77C93.68,38.69,93.36,38.38,93.42,41.07Z"/></g></g></svg>