<svg xmlns="http://www.w3.org/2000/svg" viewBox="0 0 328.77 34.98"><defs><style>.cls-1{fill:#fff;}</style></defs><g id="Layer_2" data-name="Layer 2"><g id="Layer_1-2" data-name="Layer 1"><path class="cls-1" d="M27.14,35H1.4C.13,35,0,34.86,0,33.59,0,26.9,0,20.21,0,13.51A2,2,0,0,1,.65,12Q6.34,6.33,12,.65c.86-.86,1.17-.88,2.1,0,1.9,1.82,3.78,3.65,5.67,5.48.94.92.94.92,1.85,0L27.29.49c.66-.66,1.14-.66,1.76,0,1.84,2,3.69,4,5.47,6.05.48.54.69.44,1.12,0,2-2,3.93-3.95,5.9-5.92.68-.67,1-.7,1.69,0,2.16,2.34,4.3,4.7,6.45,7.06,1.21,1.32,2.4,2.67,3.64,4A1.79,1.79,0,0,1,53.88,13c0,6.72,0,13.43,0,20.15a7.3,7.3,0,0,0,0,.81c.11.94.08,1-.87,1ZM38.57,23.15c0-3.1,0-6.2,0-9.3a3,3,0,0,0-.85-2.26c-3-3.26-6-6.57-9-9.86-.57-.63-.58-.64-1.18,0C25.72,3.55,23.88,5.42,22,7.26c-.39.38-.44.62,0,1,1.25,1.16,2.45,2.38,3.7,3.53a2.37,2.37,0,0,1,.79,1.91c0,6.46,0,12.93,0,19.4,0,.84,0,.88.87.88,3.46,0,6.92,0,10.38,0,.68,0,.87-.2.87-.88C38.56,29.8,38.57,26.47,38.57,23.15ZM12.17,1.67a5.16,5.16,0,0,1-.7.9,2.37,2.37,0,0,0-.87,2.1c0,9.42,0,18.83,0,28.24,0,.22,0,.45,0,.67A.4.4,0,0,0,11,34c1.16.24,1.48,0,1.48-1.14q0-15.11,0-30.19A1.22,1.22,0,0,0,12.17,1.67Zm1.37,0V33c0,.2,0,.41,0,.61a.4.4,0,0,0,.37.4c1,.23,1.36,0,1.36-1,0-9.39,0-18.78.05-28.16C15.35,3.31,14.63,2.57,13.54,1.68Zm29.6.43c0,.26,0,.36,0,.47q0,15.37,0,30.74c0,.49.17.65.66.68.69,0,.76-.3.76-.85,0-9.46,0-18.92,0-28.38A3.46,3.46,0,0,0,43.14,2.11ZM16.42,4.42c0,.27-.05.4-.05.53q0,14.15,0,28.3c0,.55.2.73.75.76s.74-.36.74-.89c0-8.74,0-17.48,0-26.21A3,3,0,0,0,16.42,4.42Zm2.63,2.5a1.14,1.14,0,0,0-.13.81V23.15c0,3.34,0,6.69,0,10,0,.62.2.81.82.83s.79-.31.79-.9c0-7.88-.05-15.76,0-23.63A3.07,3.07,0,0,0,19.05,6.92ZM9.58,4.69c-.6.55-1.44.84-1.44,1.84q0,13.34,0,26.67c0,.63.22.81.83.8s.64-.38.64-.84V5.22C9.61,5,9.59,4.87,9.58,4.69Zm11.94,17q0,5.79,0,11.58c0,.53.13.79.71.77.81,0,.84,0,.84-.9,0-7.09,0-14.19,0-21.28a2.07,2.07,0,0,0-.84-1.91c-.2-.14-.37-.46-.59-.38s-.13.44-.13.66ZM7.12,7A2.46,2.46,0,0,0,5.83,9.45c.1,1.23,0,2.47,0,3.71q0,10,0,19.94c0,.32-.16.75.38.88s.91,0,.91-.74V7.58C7.15,7.42,7.13,7.27,7.12,7ZM45.51,4.81V33.37a.61.61,0,0,0,.91.58c.39-.18.24-.55.24-.84,0-8.75,0-17.5,0-26.26A2.34,2.34,0,0,0,45.51,4.81ZM4.74,9.55l-.15-.08c-.41.54-1.14.8-1.14,1.68q0,11.05,0,22.1c0,.68.17.81.85.74s.47-.46.47-.81V10A3.57,3.57,0,0,0,4.74,9.55ZM2.42,11.84l-.16-.08c-.37.63-1.24.86-1.24,1.8Q1,23.43,1,33.3c0,.53.2.69.72.7s.72-.2.72-.75q0-10.51,0-21C2.44,12.1,2.43,12,2.42,11.84ZM47.68,7.17V33.22c0,.69.19.86.75.76s.38-.55.38-.87c0-7.86,0-15.72,0-23.58A2.6,2.6,0,0,0,47.68,7.17ZM42.09,1.73a1.52,1.52,0,0,0-.89,1.51c0,9.91,0,19.81,0,29.72,0,.36-.28,1,.42,1s.43-.63.43-1q0-15.19,0-30.4Zm-18,10.14a3,3,0,0,0-.07.39V33.35c0,.46.16.63.63.65.67,0,.7-.35.7-.85,0-6.41,0-12.81,0-19.21C25.43,12.9,24.86,12.44,24.14,11.87Zm16-8.19a2.51,2.51,0,0,0-1.33,2.4c.08,1.52,0,3.05,0,4.58a1.09,1.09,0,0,0,.26.87,2,2,0,0,1,.53,1.6q0,10,0,19.94c0,.3-.24.86.33.84s.27-.54.27-.84q0-14.34,0-28.69A1.17,1.17,0,0,0,40.11,3.68Zm9.71,5.85v24c0,.34.18.48.51.48s.52-.11.51-.46c0-.14,0-.27,0-.4,0-7.28,0-14.55,0-21.82A2,2,0,0,0,49.82,9.53Zm2,2.22V33.11a4.87,4.87,0,0,0,0,.54c0,.25.21.33.43.33s.44,0,.51-.22a2.42,2.42,0,0,0,0-.66c0-6.42,0-12.84,0-19.26A2.25,2.25,0,0,0,51.85,11.75ZM37.77,6.08c-.92.6-.87,3.24,0,3.84Z"/><path class="cls-1" d="M210.18,25.62A8,8,0,0,1,202,17.35c0-4.9,3.22-8.23,8-8.22a7.78,7.78,0,0,1,8.11,8.18C218.11,22.21,214.85,25.62,210.18,25.62Zm-5.88-8.27a8.81,8.81,0,0,0,.83,4.3c1.09,2.32,2.72,3.24,5.47,3.11a4.85,4.85,0,0,0,4.63-3.56,11.33,11.33,0,0,0,.18-6.91A5.35,5.35,0,0,0,209.7,10c-2.57.05-4.37,1.66-5.11,4.53A9.43,9.43,0,0,0,204.3,17.35Z"/><path class="cls-1" d="M284.45,25.62a8,8,0,0,1-8.19-8.26c-.05-4.88,3.19-8.23,8-8.23a7.79,7.79,0,0,1,8.13,8.16C292.37,22.19,289.12,25.61,284.45,25.62Zm-5.89-8.14a8.65,8.65,0,0,0,.86,4.26,5.2,5.2,0,0,0,5.53,3,4.86,4.86,0,0,0,4.52-3.54,11,11,0,0,0,.24-6.78c-.82-3-2.77-4.51-5.72-4.45-2.62,0-4.42,1.67-5.17,4.62A10.7,10.7,0,0,0,278.56,17.48Z"/><path class="cls-1" d="M160.87,22.34c0-3.69,0-7,0-10.4,0-1.33-.78-2.1-2.31-2.08l.2-.35H164c0,.45-.3.44-.53.46-.94.1-1.27.72-1.43,1.55a42.83,42.83,0,0,0-.22,6.89c0,2,0,3.92,0,5.88,0,.4.15.93-.36,1.13s-.85-.28-1.13-.64q-4.45-5.59-8.9-11.22c-.2-.26-.43-.49-.89-1v5.23c0,1.45,0,2.9,0,4.35s.39,2.72,2.13,3.12h-5.2c2.61-.7,2.11-2.83,2.14-4.67.05-2.51,0-5,0-7.54,0-1.55-.12-3.07-2.3-3.24a3,3,0,0,1,3.81.45c2.78,3.45,5.54,6.92,8.32,10.38C159.85,21.12,160.26,21.61,160.87,22.34Z"/><path class="cls-1" d="M116.14,14.68a17.17,17.17,0,0,1,.08,5.25c-1-1.89-1.59-2.2-3.65-2.08-.7,0-1,.34-1,1,0,1.45,0,2.91.07,4.35,0,1,.58,1.58,1.68,1.4.55-.08,1.11-.1,1.66-.18,1.56-.2,3-.55,3.74-2.58a5.46,5.46,0,0,1,.23,3.07c0,.37-.4.43-.7.43H107.77a1.44,1.44,0,0,1,0-.34c1.43-.24,1.75-1.27,1.81-2.5.14-3.46.15-6.91,0-10.36-.07-1.68-.18-1.68-1.93-2.48.35-.49.85-.32,1.27-.32,2.52,0,5,0,7.55,0,1.74,0,1.78,0,1.75,1.82,0,.47.21,1-.36,1.44-1.1-2.48-3.34-2.26-5.45-2.36-.59,0-.85.3-.86.87,0,1.66,0,3.32,0,5,0,.64.31.94,1,.89C114.08,16.87,115.8,17,116.14,14.68Z"/><path class="cls-1" d="M328.53,22.18a6.19,6.19,0,0,1,.23,2.43.65.65,0,0,1-.69.74c-3.52,0-7,0-10.67-.13,2.29-.62,2-2.41,2-4,0-2.77,0-5.54,0-8.31,0-1.44,0-2.93-2.09-3.08.49-.62,1-.45,1.41-.45,2.51,0,5,0,7.54,0,1.71,0,1.73,0,1.73,1.7a3.57,3.57,0,0,1-.24,1.71c-1.11-2.51-3.28-2.38-5.33-2.53-.84-.06-1.13.33-1.11,1.14,0,1.53,0,3.06,0,4.6,0,.76.29,1.14,1.06,1,1.47-.22,3.28.08,3.29-2.46l.34.27v5.08c-.39-2.33-2.23-1.88-3.73-2.07-.65-.08-1,.11-1,.81,0,1.49,0,3,.07,4.47.07,1.27.59,1.63,1.83,1.49.51-.05,1-.08,1.52-.15C326.31,24.25,327.77,23.87,328.53,22.18Z"/><path class="cls-1" d="M130.41,9.56a7.88,7.88,0,0,1,3.3-.13c.62.05.7.69.87,1.15,1.39,3.71,2.75,7.44,4.14,11.15.85,2.28.87,2.27,2.72,3.53h-5.36c.27-.6,1.31-.41,1.2-1.19a10.26,10.26,0,0,0-1.05-3.27c-.21-.4-.67-.3-1-.3-1.45,0-2.9.05-4.35,0a1.42,1.42,0,0,0-1.72,1.26,6.14,6.14,0,0,1-.22.73c-.36,1.17-.65,2.3,1.16,2.7a16.17,16.17,0,0,1-4.71,0c2.08-.71,2.51-2.55,3.1-4.25,1-2.85,2-5.72,2.95-8.59C132,10.63,131.9,10.52,130.41,9.56Zm2.51,2h-.28q-1.26,3.59-2.54,7.19c-.21.61,0,.86.65.85,1.41,0,2.81,0,4.21,0,.66,0,.81-.3.6-.89C134.67,16.34,133.8,14,132.92,11.57Z"/><path class="cls-1" d="M300.34,20.56c.44.43.38,1,.51,1.53a3.62,3.62,0,0,0,5.5,2.21,2.79,2.79,0,0,0,.41-4.33,11.16,11.16,0,0,0-2.71-1.91,17.28,17.28,0,0,1-2.84-2,3.83,3.83,0,0,1-1.29-3.8,3.67,3.67,0,0,1,2.8-2.85,7.73,7.73,0,0,1,5.13.36c.33.12.74.27.72.64-.06,1.2.15,2.45-.45,3.59-.54-.16-.46-.55-.49-.87a3.79,3.79,0,0,0-.7-1.9A3.06,3.06,0,0,0,303.77,10a2.43,2.43,0,0,0-2.07,1.86,2.71,2.71,0,0,0,1.22,3c1.37.95,2.83,1.75,4.23,2.65a4.28,4.28,0,0,1,2.15,3.17c.29,2.69-1.36,4.61-4.21,4.87a8.23,8.23,0,0,1-3-.25C299.59,24.66,299,22.91,300.34,20.56Z"/><path class="cls-1" d="M81.23,13.7a9.76,9.76,0,0,0-1.59-2.5c-2.23-2-6.65-1.52-8.4.86-2,2.76-1.93,8.08.21,10.75a5,5,0,0,0,3.77,1.88A9.48,9.48,0,0,0,81,23.33c.26-.16.6-.56.88-.18s-.15.67-.44.9c-3.25,2.52-9.3,2-11.87-1a8.71,8.71,0,0,1,.64-11.93c2.26-2,5-2.21,7.82-1.67a15.22,15.22,0,0,1,1.73.46C81.69,10.5,82.07,11.37,81.23,13.7Z"/><path class="cls-1" d="M250.52,13.56c-.21-.16-.34-.21-.39-.31-1.54-2.73-3.39-3.66-6.38-3.22-2.25.34-3.88,2-4.49,4.67a11.51,11.51,0,0,0,0,5.19c.85,3.65,3.6,5.4,7.4,4.73a10.08,10.08,0,0,0,3.58-1.33c.24-.16.56-.58.85-.15s-.11.61-.38.84c-4.69,4-12.65,1.2-13.81-4.84a8.83,8.83,0,0,1,.8-5.83c1.7-3.39,5.12-4.77,9.5-3.89.34.07.67.15,1,.24C250.79,10.34,251,10.67,250.52,13.56Z"/><path class="cls-1" d="M182.41,12.74a6.06,6.06,0,0,1-.18-2.7c0-.54.45-.68.92-.68h11.38c.61,0,1,.25,1,.89a5.44,5.44,0,0,1-.29,2.59c-.83-2.25-2.5-2.55-4.32-2.64-.8,0-1.18.23-1.17,1.08.07,3.92-.08,7.84.18,11.76.11,1.52,1.13,1.71,2.19,2.18h-6.52c.24-.43.62-.36.93-.43a1.52,1.52,0,0,0,1.28-1.52c.34-4,.16-8.09.2-12.14,0-.75-.39-.92-1.05-.93C184.84,10.16,183.68,10.75,182.41,12.74Z"/><path class="cls-1" d="M269.23,21.78a6,6,0,0,1,.26,2.93c0,.46-.35.65-.79.65l-1,0c-2.94,0-5.88,0-9-.14,2.6-.7,1.87-2.83,2-4.42a54.5,54.5,0,0,0-.08-8.18c-.21-2.12-.18-2.12-2.09-3.13h5.91c-2.07.46-1.75,2.11-1.77,3.5,0,3.28,0,6.57,0,9.85,0,1.65.42,2,2,1.8C266.49,24.44,268.43,24.35,269.23,21.78Z"/><path class="cls-1" d="M100.15,22.1a6.45,6.45,0,0,1,.12,2.68c0,.41-.34.58-.72.58-3.31,0-6.63,0-10.07-.12,2.44-.69,2-2.62,2-4.28q.06-4.08,0-8.18c0-2.22-.18-2.4-1.9-3.17a19,19,0,0,1,5.74-.07c-2.52.77-1.85,2.79-1.89,4.45-.07,2.94,0,5.88,0,8.82,0,1.68.45,2,2.11,1.86C98,24.44,98.56,24.15,100.15,22.1Z"/></g></g></svg>