<svg xmlns="http://www.w3.org/2000/svg" viewBox="0 0 169.29 169.34"><g id="Layer_2" data-name="Layer 2"><g id="Layer_1-2" data-name="Layer 1"><path d="M168.65,59.68a65.57,65.57,0,0,0-18-37.72C137,7.64,120,.26,100,0L98.77,0A56.8,56.8,0,0,0,88.61,1,68.39,68.39,0,0,0,46.45,25.68c-11.39,14-16.54,30.44-15.29,48.79A66.54,66.54,0,0,0,41,105a3.37,3.37,0,0,1-.56,4.59q-15.51,15.45-31,31l-7.54,7.54c-2.59,2.6-2.58,4.19,0,6.82l12.74,12.74a4.74,4.74,0,0,0,3.14,1.69,4.85,4.85,0,0,0,3.2-1.73l7.67-7.67Q44.19,144.48,59.64,129a3.79,3.79,0,0,1,2.68-1.29,4.08,4.08,0,0,1,2.11.67,67.79,67.79,0,0,0,35.4,10,72,72,0,0,0,8.12-.46,66.26,66.26,0,0,0,39.3-18.18C164.38,103.4,171.58,83.19,168.65,59.68ZM39.41,139.08q-3.79,3.78-7.57,7.59l-4.24,4.25c-2.46,2.47-4.92,5-7.39,7.41l-.08.09A3.15,3.15,0,0,1,18,159.6l-.81.07-.74-.61a5.67,5.67,0,0,1-.59-.51l-1.73-1.72c-1.08-1.09-2.17-2.18-3.27-3.25a2.77,2.77,0,0,1,0-4.27L19.14,141l3.92-3.91,2.36-2.34c1.61-1.6,3.22-3.19,4.8-4.8a3.2,3.2,0,0,1,2.26-1.11,2.91,2.91,0,0,1,2.11,1c1.65,1.69,3.28,3.32,4.87,4.86a3,3,0,0,1,1,2.14A3.2,3.2,0,0,1,39.41,139.08Zm14.44-14.42c-1.77,1.75-3.53,3.51-5.31,5.25a3.35,3.35,0,0,1-.84.58l-1.22.74-1.31-1.09c-.23-.18-.44-.36-.64-.55l-1.68-1.69c-1-1-2.07-2.07-3.11-3.09a3.14,3.14,0,0,1-1.09-2.23,3,3,0,0,1,1-2.15c1.49-1.43,3.07-3,4.82-4.84a3.05,3.05,0,0,1,2.19-1.06,3.09,3.09,0,0,1,2.2,1.06c1.48,1.56,3,3.1,4.56,4.58l.19.19a3.29,3.29,0,0,1,1.11,2.27A2.83,2.83,0,0,1,53.85,124.66Zm90.23-11.72a61.94,61.94,0,0,1-44.14,18.25h-.12c-34-.07-61.65-27.91-61.65-62.07a62.12,62.12,0,0,1,62-61.9h.07a62.09,62.09,0,0,1,61.91,61.89A61.46,61.46,0,0,1,144.08,112.94Z"/><path d="M168.65,59.68a65.57,65.57,0,0,0-18-37.72C137,7.64,120,.26,100,0L98.77,0A56.8,56.8,0,0,0,88.61,1,68.39,68.39,0,0,0,46.45,25.68c-11.39,14-16.54,30.44-15.29,48.79A66.54,66.54,0,0,0,41,105a3.37,3.37,0,0,1-.56,4.59q-15.51,15.45-31,31l-7.54,7.54c-2.59,2.6-2.58,4.19,0,6.82l12.74,12.74a4.74,4.74,0,0,0,3.14,1.69,4.85,4.85,0,0,0,3.2-1.73l7.67-7.67Q44.19,144.48,59.64,129a3.79,3.79,0,0,1,2.68-1.29,4.08,4.08,0,0,1,2.11.67,67.79,67.79,0,0,0,35.4,10,72,72,0,0,0,8.12-.46,66.26,66.26,0,0,0,39.3-18.18C164.38,103.4,171.58,83.19,168.65,59.68ZM39.41,139.08q-3.79,3.78-7.57,7.59l-4.24,4.25c-2.46,2.47-4.92,5-7.39,7.41l-.08.09A3.15,3.15,0,0,1,18,159.6l-.81.07-.74-.61a5.67,5.67,0,0,1-.59-.51l-1.73-1.72c-1.08-1.09-2.17-2.18-3.27-3.25a2.77,2.77,0,0,1,0-4.27L19.14,141l3.92-3.91,2.36-2.34c1.61-1.6,3.22-3.19,4.8-4.8a3.2,3.2,0,0,1,2.26-1.11,2.91,2.91,0,0,1,2.11,1c1.65,1.69,3.28,3.32,4.87,4.86a3,3,0,0,1,1,2.14A3.2,3.2,0,0,1,39.41,139.08Zm14.44-14.42c-1.77,1.75-3.53,3.51-5.31,5.25a3.35,3.35,0,0,1-.84.58l-1.22.74-1.31-1.09c-.23-.18-.44-.36-.64-.55l-1.68-1.69c-1-1-2.07-2.07-3.11-3.09a3.14,3.14,0,0,1-1.09-2.23,3,3,0,0,1,1-2.15c1.49-1.43,3.07-3,4.82-4.84a3.05,3.05,0,0,1,2.19-1.06,3.09,3.09,0,0,1,2.2,1.06c1.48,1.56,3,3.1,4.56,4.58l.19.19a3.29,3.29,0,0,1,1.11,2.27A2.83,2.83,0,0,1,53.85,124.66Zm90.23-11.72a61.94,61.94,0,0,1-44.14,18.25h-.12c-34-.07-61.65-27.91-61.65-62.07a62.12,62.12,0,0,1,62-61.9h.07a62.09,62.09,0,0,1,61.91,61.89A61.46,61.46,0,0,1,144.08,112.94Z"/><path d="M100.45,20.17h-.33a49,49,0,0,0-34.69,83.55A48.46,48.46,0,0,0,100,118.22h.1a49,49,0,0,0,.38-98Zm-.3,90.76a41.75,41.75,0,1,1,.12-83.5h0a41.72,41.72,0,0,1,41.63,41.7A41.85,41.85,0,0,1,100.15,110.93Z"/><path d="M100.45,20.17h-.33a49,49,0,0,0-34.69,83.55A48.46,48.46,0,0,0,100,118.22h.1a49,49,0,0,0,.38-98Zm-.3,90.76a41.75,41.75,0,1,1,.12-83.5h0a41.72,41.72,0,0,1,41.63,41.7A41.85,41.85,0,0,1,100.15,110.93Z"/><path d="M123.89,59v.13a3.42,3.42,0,0,1-1.08,2.63L118.55,66Q108.2,76.36,97.81,86.71a3.51,3.51,0,0,1-5.4,0c-4.86-4.79-9.87-9.8-14.89-14.89a3.8,3.8,0,0,1-1.16-2.69,3.75,3.75,0,0,1,3.56-3.58,3.9,3.9,0,0,1,2.73,1.25c3,2.92,6.45,6.37,9.86,9.88a3.23,3.23,0,0,0,5.16,0c6-6,12.53-12.61,20.07-20.09a3.71,3.71,0,0,1,2.62-1.13,3.6,3.6,0,0,1,3.31,2.25A2.86,2.86,0,0,1,123.89,59Z"/><path d="M123.89,59v.13a3.42,3.42,0,0,1-1.08,2.63L118.55,66Q108.2,76.36,97.81,86.71a3.51,3.51,0,0,1-5.4,0c-4.86-4.79-9.87-9.8-14.89-14.89a3.8,3.8,0,0,1-1.16-2.69,3.75,3.75,0,0,1,3.56-3.58,3.9,3.9,0,0,1,2.73,1.25c3,2.92,6.45,6.37,9.86,9.88a3.23,3.23,0,0,0,5.16,0c6-6,12.53-12.61,20.07-20.09a3.71,3.71,0,0,1,2.62-1.13,3.6,3.6,0,0,1,3.31,2.25A2.86,2.86,0,0,1,123.89,59Z"/></g></g></svg>