<svg xmlns="http://www.w3.org/2000/svg" viewBox="0 0 219.22 162"><g id="Layer_2" data-name="Layer 2"><g id="Layer_1-2" data-name="Layer 1"><path d="M204.45,80.19C197,61.33,188.09,39,179.25,16.59a2.65,2.65,0,0,0-.22-.45,4.22,4.22,0,0,0-.6.12c-2.37.64-4.78,1.24-7.12,1.82-2.74.69-5.59,1.4-8.35,2.17a48.32,48.32,0,0,1-13.24,1.91A43.66,43.66,0,0,1,139.57,21c-7.2-1.72-15.77-3.47-24.69-3.47h-1.22a15.38,15.38,0,0,0-8.22,2,8.1,8.1,0,0,1-4.26,1.3,5.33,5.33,0,0,1-.56,0c-3-.25-6.17-.5-9.33-1C78.63,17.91,65.5,14.73,48.71,9.52c-.45-.14-.67-.16-.73-.19a2.24,2.24,0,0,0-.43.7C44.24,17,40.8,24.11,37.47,31L31.71,42.84c-4.55,9.38-9.25,19.07-13.92,28.59-.43.89-.37,1.13.09,1.7,1.13,1.43,2.2,2.92,3.24,4.35.84,1.16,1.68,2.31,2.55,3.45A4.1,4.1,0,0,1,24,86,68.89,68.89,0,0,0,18.9,97.08,14.27,14.27,0,0,0,30,116.25c1.44.26,5.25.94,5.16,5.51,0,.08,0,.17,0,.26l0,.14c1.35,6.17,7.47,11.19,13.64,11.19a10.86,10.86,0,0,0,1.28-.07,7.41,7.41,0,0,1,.9-.06,4.12,4.12,0,0,1,4,2.84c2.34,5.37,6.29,8.27,12,8.84,2.55.26,4,1.53,4.6,4.13C73.22,155.16,77,158.8,83,159.86a19.16,19.16,0,0,0,3.22.29,13.46,13.46,0,0,0,11.54-6.23,4.11,4.11,0,0,1,3.25-2,4.82,4.82,0,0,1,2.74,1.06c3.65,2.6,6.72,4.7,9.66,6.61a14.86,14.86,0,0,0,8.11,2.45A14.55,14.55,0,0,0,135,153c.27-.63,1.08-2.56,3.06-2.56a4.25,4.25,0,0,1,2.51,1,14.51,14.51,0,0,0,9,3.08h.16a14.29,14.29,0,0,0,13.83-10.28c.39-1.25,1.1-3.57,4.29-3.66a14.22,14.22,0,0,0,14.39-17.29,4.3,4.3,0,0,1,2.31-4.86,14.63,14.63,0,0,0,5.14-20.29c-.8-1.32-1.44-2.37-.94-3.64s1.67-1.61,3.28-2.06c6.07-1.72,10.15-5.18,12.46-10.58A1.9,1.9,0,0,0,204.45,80.19ZM33,109.38a8,8,0,0,1-6.5-3.4,6.52,6.52,0,0,1-.9-6A71.23,71.23,0,0,1,30,90.13a7,7,0,0,1,6.2-3.74A7.46,7.46,0,0,1,42.91,97l-.5,1.14c-.92,2.11-1.87,4.29-2.89,6.41C38.06,107.56,35.77,109.27,33,109.38ZM56.43,121.2a7.71,7.71,0,0,1-7,4.9,7.35,7.35,0,0,1-3-.68c-3.86-1.74-5.29-6.07-3.41-10.29l1.6-3.62c2-4.43,4-9,6.11-13.47a7.4,7.4,0,0,1,6.63-4.58,7.65,7.65,0,0,1,5.92,3,6.43,6.43,0,0,1,1.5,4.37,8.74,8.74,0,0,1-.92,3.85l-2.62,5.83C59.63,114.1,58,117.65,56.43,121.2ZM76.82,130c-.48,1.12-1,2.27-1.57,3.4A7.29,7.29,0,0,1,65.18,137c-3.58-1.76-5-6.06-3.21-10,2.28-5.12,4.35-9.71,6.33-14,1.48-3.23,3.81-4.87,6.93-4.87h0a7.23,7.23,0,0,1,6.08,3.11,7.41,7.41,0,0,1,.67,7c-1,2.53-2.13,5-3.23,7.41-.47,1-.94,2.05-1.4,3.07Zm20.84,7.22c-1.45,3.48-3.14,7.21-5.17,11.4A7,7,0,0,1,86,152.87h-.22a7.43,7.43,0,0,1-6.13-3.22,6.84,6.84,0,0,1-.74-6.42c1.5-3.8,3.29-7.81,5.5-12.25a7.09,7.09,0,0,1,6.35-4,7.37,7.37,0,0,1,3.15.72A7.29,7.29,0,0,1,97.66,137.19Zm29.89,14.29a8.2,8.2,0,0,1-2.7,2.44,7,7,0,0,1-3.34.86,7.09,7.09,0,0,1-3.86-1.17c-2.86-1.85-5.7-3.82-8.45-5.72l-3.76-2.59a3.39,3.39,0,0,1-1.47-4.37,16.49,16.49,0,0,0,1.26-9.51l-.72-4.59,3.83,2.64,5.39,3.68c4.27,2.92,8.31,5.68,12.3,8.56A7,7,0,0,1,127.55,151.48Zm55.57-41.39a6.9,6.9,0,0,1-5.72,3.11,8.3,8.3,0,0,1-4.65-1.54q-11.82-8-23.59-16.11l-8.93-6.1-2.32-1.58c-1.65-1.12-3.3-2.24-4.93-3.38a55.16,55.16,0,0,1-2.38,6.66,2.77,2.77,0,0,0-.14.41A3.42,3.42,0,0,0,131,92q13.43,9.12,26.8,18.28l7.47,5.1,6.08,4.17a8.78,8.78,0,0,1,3.86,5.53,6.84,6.84,0,0,1-1.19,5.19,7.1,7.1,0,0,1-5.88,3.22,8.75,8.75,0,0,1-5.08-1.8c-6.32-4.57-12.89-9-19.23-13.36q-4.32-2.94-8.61-5.89l-3.78-2.58c-2.42-1.64-4.92-3.34-7.35-5.08a2.58,2.58,0,0,0-.29-.2l-.12.21a45.21,45.21,0,0,1-4.18,5.94l0,0,0,0c5.55,3.74,11.15,7.58,16.57,11.29l7.77,5.31q4.72,3.21,9.41,6.47a8.15,8.15,0,0,1,3.67,5.17,6.49,6.49,0,0,1-1.18,4.95,7.06,7.06,0,0,1-5.93,3.36,8.77,8.77,0,0,1-4.9-1.68q-10.85-7.4-21.68-14.8l-12.41-8.47a16.36,16.36,0,0,0-1.41-.91c-.3.19-.84.62-1.38,1-.12.11-.26.2-.39.3a2.78,2.78,0,0,0-.27.21,5.31,5.31,0,0,1-3.69,1.82A5.16,5.16,0,0,1,100,123,11.49,11.49,0,0,0,93,120c-2.29-.32-3.37-1.67-3.21-4a14.13,14.13,0,0,0-3.71-10.39A13.83,13.83,0,0,0,76.3,101a4.47,4.47,0,0,1-4.76-3.77A14.23,14.23,0,0,0,57.65,86.31a15.45,15.45,0,0,0-4,.54,7.11,7.11,0,0,1-1.85.28,4.86,4.86,0,0,1-3.93-2.19,13.5,13.5,0,0,0-11.33-5.69,17.32,17.32,0,0,0-2,.12c-.27,0-.52,0-.77,0a4,4,0,0,1-3.62-1.93c-3.48-3.52-3.94-7.22-1.49-12,5-9.79,9.87-19.9,14.56-29.67Q46,29.94,48.82,24.09C50.35,20.92,51.28,19,54,19a16.66,16.66,0,0,1,4.08.81C66.57,22.1,76.61,24.67,87,26.48h.14a2.63,2.63,0,0,1,2.79,1.94c.24.92.15,2.23-1.61,3.25a.53.53,0,0,0-.15.08c-2.32,1.66-4.64,3.3-7,5-3.85,2.74-7.71,5.47-11.54,8.23-2.89,2.09-4.48,4.78-4.47,7.59s1.65,5.62,4.63,7.75c3.87,2.79,8.62,4.27,14.5,4.54,5.88-.07,10.17-1.4,13.91-4.3,1.8-1.39,3.68-2.7,5.5-4,1.53-1.07,3.12-2.17,4.62-3.3a5,5,0,0,1,3-1.16,4.94,4.94,0,0,1,3.11,1.28,200.48,200.48,0,0,1,16.41,14.81c8.42,8.54,19.1,15.33,32.65,20.73a48.63,48.63,0,0,1,10.12,5.59c1.11.79,2.23,1.55,3.36,2.31,1.35.91,2.75,1.86,4.11,2.84C184.89,102.37,185.67,106.47,183.12,110.09ZM192,84.82a19.92,19.92,0,0,1-7.77,1.47,33.14,33.14,0,0,1-6.64-.74c-10.73-2.13-20.91-6.82-33-15.17a72.09,72.09,0,0,1-8.93-7.75c-.81-.79-1.62-1.58-2.45-2.36l-.3-.28a175.86,175.86,0,0,0-15.52-13.53,20.25,20.25,0,0,0-3.81-2.22,6.26,6.26,0,0,0-2.56-.62,5,5,0,0,0-3,1.06l-5.2,3.67c-2.87,2-5.82,4.08-8.67,6.19A15.07,15.07,0,0,1,85,57.65a22.76,22.76,0,0,1-8.75-2c-.81-.34-2.51-1-2.69-2.74s1.35-2.79,2.17-3.38l13.89-9.84,6.89-4.88c.94-.67,1.89-1.33,2.84-2,2.17-1.5,4.41-3.06,6.51-4.69s5-3.57,8.16-3.57a8.21,8.21,0,0,1,1.85.22,69,69,0,0,1,18.26,2.45,59.27,59.27,0,0,0,15.56,2.11A63,63,0,0,0,168,26.48a15.38,15.38,0,0,1,4.1-.88c2.89,0,3.75,2.16,5.06,5.45Q184.06,48.39,191,65.74l4.39,11.07C197,81,196.17,83.06,192,84.82Z"/><path d="M204.45,80.19C197,61.33,188.09,39,179.25,16.59a2.65,2.65,0,0,0-.22-.45,4.22,4.22,0,0,0-.6.12c-2.37.64-4.78,1.24-7.12,1.82-2.74.69-5.59,1.4-8.35,2.17a48.32,48.32,0,0,1-13.24,1.91A43.66,43.66,0,0,1,139.57,21c-7.2-1.72-15.77-3.47-24.69-3.47h-1.22a15.38,15.38,0,0,0-8.22,2,8.1,8.1,0,0,1-4.26,1.3,5.33,5.33,0,0,1-.56,0c-3-.25-6.17-.5-9.33-1C78.63,17.91,65.5,14.73,48.71,9.52c-.45-.14-.67-.16-.73-.19a2.24,2.24,0,0,0-.43.7C44.24,17,40.8,24.11,37.47,31L31.71,42.84c-4.55,9.38-9.25,19.07-13.92,28.59-.43.89-.37,1.13.09,1.7,1.13,1.43,2.2,2.92,3.24,4.35.84,1.16,1.68,2.31,2.55,3.45A4.1,4.1,0,0,1,24,86,68.89,68.89,0,0,0,18.9,97.08,14.27,14.27,0,0,0,30,116.25c1.44.26,5.25.94,5.16,5.51,0,.08,0,.17,0,.26l0,.14c1.35,6.17,7.47,11.19,13.64,11.19a10.86,10.86,0,0,0,1.28-.07,7.41,7.41,0,0,1,.9-.06,4.12,4.12,0,0,1,4,2.84c2.34,5.37,6.29,8.27,12,8.84,2.55.26,4,1.53,4.6,4.13C73.22,155.16,77,158.8,83,159.86a19.16,19.16,0,0,0,3.22.29,13.46,13.46,0,0,0,11.54-6.23,4.11,4.11,0,0,1,3.25-2,4.82,4.82,0,0,1,2.74,1.06c3.65,2.6,6.72,4.7,9.66,6.61a14.86,14.86,0,0,0,8.11,2.45A14.55,14.55,0,0,0,135,153c.27-.63,1.08-2.56,3.06-2.56a4.25,4.25,0,0,1,2.51,1,14.51,14.51,0,0,0,9,3.08h.16a14.29,14.29,0,0,0,13.83-10.28c.39-1.25,1.1-3.57,4.29-3.66a14.22,14.22,0,0,0,14.39-17.29,4.3,4.3,0,0,1,2.31-4.86,14.63,14.63,0,0,0,5.14-20.29c-.8-1.32-1.44-2.37-.94-3.64s1.67-1.61,3.28-2.06c6.07-1.72,10.15-5.18,12.46-10.58A1.9,1.9,0,0,0,204.45,80.19ZM33,109.38a8,8,0,0,1-6.5-3.4,6.52,6.52,0,0,1-.9-6A71.23,71.23,0,0,1,30,90.13a7,7,0,0,1,6.2-3.74A7.46,7.46,0,0,1,42.91,97l-.5,1.14c-.92,2.11-1.87,4.29-2.89,6.41C38.06,107.56,35.77,109.27,33,109.38ZM56.43,121.2a7.71,7.71,0,0,1-7,4.9,7.35,7.35,0,0,1-3-.68c-3.86-1.74-5.29-6.07-3.41-10.29l1.6-3.62c2-4.43,4-9,6.11-13.47a7.4,7.4,0,0,1,6.63-4.58,7.65,7.65,0,0,1,5.92,3,6.43,6.43,0,0,1,1.5,4.37,8.74,8.74,0,0,1-.92,3.85l-2.62,5.83C59.63,114.1,58,117.65,56.43,121.2ZM76.82,130c-.48,1.12-1,2.27-1.57,3.4A7.29,7.29,0,0,1,65.18,137c-3.58-1.76-5-6.06-3.21-10,2.28-5.12,4.35-9.71,6.33-14,1.48-3.23,3.81-4.87,6.93-4.87h0a7.23,7.23,0,0,1,6.08,3.11,7.41,7.41,0,0,1,.67,7c-1,2.53-2.13,5-3.23,7.41-.47,1-.94,2.05-1.4,3.07Zm20.84,7.22c-1.45,3.48-3.14,7.21-5.17,11.4A7,7,0,0,1,86,152.87h-.22a7.43,7.43,0,0,1-6.13-3.22,6.84,6.84,0,0,1-.74-6.42c1.5-3.8,3.29-7.81,5.5-12.25a7.09,7.09,0,0,1,6.35-4,7.37,7.37,0,0,1,3.15.72A7.29,7.29,0,0,1,97.66,137.19Zm29.89,14.29a8.2,8.2,0,0,1-2.7,2.44,7,7,0,0,1-3.34.86,7.09,7.09,0,0,1-3.86-1.17c-2.86-1.85-5.7-3.82-8.45-5.72l-3.76-2.59a3.39,3.39,0,0,1-1.47-4.37,16.49,16.49,0,0,0,1.26-9.51l-.72-4.59,3.83,2.64,5.39,3.68c4.27,2.92,8.31,5.68,12.3,8.56A7,7,0,0,1,127.55,151.48Zm55.57-41.39a6.9,6.9,0,0,1-5.72,3.11,8.3,8.3,0,0,1-4.65-1.54q-11.82-8-23.59-16.11l-8.93-6.1-2.32-1.58c-1.65-1.12-3.3-2.24-4.93-3.38a55.16,55.16,0,0,1-2.38,6.66,2.77,2.77,0,0,0-.14.41A3.42,3.42,0,0,0,131,92q13.43,9.12,26.8,18.28l7.47,5.1,6.08,4.17a8.78,8.78,0,0,1,3.86,5.53,6.84,6.84,0,0,1-1.19,5.19,7.1,7.1,0,0,1-5.88,3.22,8.75,8.75,0,0,1-5.08-1.8c-6.32-4.57-12.89-9-19.23-13.36q-4.32-2.94-8.61-5.89l-3.78-2.58c-2.42-1.64-4.92-3.34-7.35-5.08a2.58,2.58,0,0,0-.29-.2l-.12.21a45.21,45.21,0,0,1-4.18,5.94l0,0,0,0c5.55,3.74,11.15,7.58,16.57,11.29l7.77,5.31q4.72,3.21,9.41,6.47a8.15,8.15,0,0,1,3.67,5.17,6.49,6.49,0,0,1-1.18,4.95,7.06,7.06,0,0,1-5.93,3.36,8.77,8.77,0,0,1-4.9-1.68q-10.85-7.4-21.68-14.8l-12.41-8.47a16.36,16.36,0,0,0-1.41-.91c-.3.19-.84.62-1.38,1-.12.11-.26.2-.39.3a2.78,2.78,0,0,0-.27.21,5.31,5.31,0,0,1-3.69,1.82A5.16,5.16,0,0,1,100,123,11.49,11.49,0,0,0,93,120c-2.29-.32-3.37-1.67-3.21-4a14.13,14.13,0,0,0-3.71-10.39A13.83,13.83,0,0,0,76.3,101a4.47,4.47,0,0,1-4.76-3.77A14.23,14.23,0,0,0,57.65,86.31a15.45,15.45,0,0,0-4,.54,7.11,7.11,0,0,1-1.85.28,4.86,4.86,0,0,1-3.93-2.19,13.5,13.5,0,0,0-11.33-5.69,17.32,17.32,0,0,0-2,.12c-.27,0-.52,0-.77,0a4,4,0,0,1-3.62-1.93c-3.48-3.52-3.94-7.22-1.49-12,5-9.79,9.87-19.9,14.56-29.67Q46,29.94,48.82,24.09C50.35,20.92,51.28,19,54,19a16.66,16.66,0,0,1,4.08.81C66.57,22.1,76.61,24.67,87,26.48h.14a2.63,2.63,0,0,1,2.79,1.94c.24.92.15,2.23-1.61,3.25a.53.53,0,0,0-.15.08c-2.32,1.66-4.64,3.3-7,5-3.85,2.74-7.71,5.47-11.54,8.23-2.89,2.09-4.48,4.78-4.47,7.59s1.65,5.62,4.63,7.75c3.87,2.79,8.62,4.27,14.5,4.54,5.88-.07,10.17-1.4,13.91-4.3,1.8-1.39,3.68-2.7,5.5-4,1.53-1.07,3.12-2.17,4.62-3.3a5,5,0,0,1,3-1.16,4.94,4.94,0,0,1,3.11,1.28,200.48,200.48,0,0,1,16.41,14.81c8.42,8.54,19.1,15.33,32.65,20.73a48.63,48.63,0,0,1,10.12,5.59c1.11.79,2.23,1.55,3.36,2.31,1.35.91,2.75,1.86,4.11,2.84C184.89,102.37,185.67,106.47,183.12,110.09ZM192,84.82a19.92,19.92,0,0,1-7.77,1.47,33.14,33.14,0,0,1-6.64-.74c-10.73-2.13-20.91-6.82-33-15.17a72.09,72.09,0,0,1-8.93-7.75c-.81-.79-1.62-1.58-2.45-2.36l-.3-.28a175.86,175.86,0,0,0-15.52-13.53,20.25,20.25,0,0,0-3.81-2.22,6.26,6.26,0,0,0-2.56-.62,5,5,0,0,0-3,1.06l-5.2,3.67c-2.87,2-5.82,4.08-8.67,6.19A15.07,15.07,0,0,1,85,57.65a22.76,22.76,0,0,1-8.75-2c-.81-.34-2.51-1-2.69-2.74s1.35-2.79,2.17-3.38l13.89-9.84,6.89-4.88c.94-.67,1.89-1.33,2.84-2,2.17-1.5,4.41-3.06,6.51-4.69s5-3.57,8.16-3.57a8.21,8.21,0,0,1,1.85.22,69,69,0,0,1,18.26,2.45,59.27,59.27,0,0,0,15.56,2.11A63,63,0,0,0,168,26.48a15.38,15.38,0,0,1,4.1-.88c2.89,0,3.75,2.16,5.06,5.45Q184.06,48.39,191,65.74l4.39,11.07C197,81,196.17,83.06,192,84.82Z"/><path d="M38.83,5.52C37,9.39,35.08,13.3,33.21,17.09l-1.83,3.72-8.55,17.4Q15.09,54,7.36,69.73c-.68,1.39-1.73,3-2.93,3.08h0A4.47,4.47,0,0,1,.5,71.07a3.67,3.67,0,0,1-.09-3.56c1.4-3.1,2.94-6.22,4.44-9.24l1.39-2.82Q19.14,29.2,32.05,3C32.71,1.61,33.89,0,35.74,0a4,4,0,0,1,.49,0,3.43,3.43,0,0,1,2.66,1.74A4.11,4.11,0,0,1,38.83,5.52Z"/><path d="M38.83,5.52C37,9.39,35.08,13.3,33.21,17.09l-1.83,3.72-8.55,17.4Q15.09,54,7.36,69.73c-.68,1.39-1.73,3-2.93,3.08h0A4.47,4.47,0,0,1,.5,71.07a3.67,3.67,0,0,1-.09-3.56c1.4-3.1,2.94-6.22,4.44-9.24l1.39-2.82Q19.14,29.2,32.05,3C32.71,1.61,33.89,0,35.74,0a4,4,0,0,1,.49,0,3.43,3.43,0,0,1,2.66,1.74A4.11,4.11,0,0,1,38.83,5.52Z"/><path d="M218.91,73.61A3.18,3.18,0,0,1,217,75.32a4.05,4.05,0,0,1-1.42.27A3.73,3.73,0,0,1,212.22,73c-1.93-4.56-3.85-9.23-5.7-13.74l-1.78-4.33Q196,33.69,187.26,12.47a4.64,4.64,0,0,1,.05-4.33,4,4,0,0,1,3.48-1.51c1.58,0,2.47,1.41,2.94,2.54C195.26,12.9,205.62,38,205.62,38Q212.19,54,218.74,69.9A4.74,4.74,0,0,1,218.91,73.61Z"/><path d="M218.91,73.61A3.18,3.18,0,0,1,217,75.32a4.05,4.05,0,0,1-1.42.27A3.73,3.73,0,0,1,212.22,73c-1.93-4.56-3.85-9.23-5.7-13.74l-1.78-4.33Q196,33.69,187.26,12.47a4.64,4.64,0,0,1,.05-4.33,4,4,0,0,1,3.48-1.51c1.58,0,2.47,1.41,2.94,2.54C195.26,12.9,205.62,38,205.62,38Q212.19,54,218.74,69.9A4.74,4.74,0,0,1,218.91,73.61Z"/></g></g></svg>