<svg xmlns="http://www.w3.org/2000/svg" viewBox="0 0 155.98 181"><g id="Layer_2" data-name="Layer 2"><g id="Layer_1-2" data-name="Layer 1"><path d="M68.61,0C73.52,1.6,77.12,4.64,79,9.54c.48,1.29,1.48,1.13,2.46,1.13,12.27,0,24.55.23,36.81-.08,7.76-.2,12.64,5.46,12.59,12.52-.19,25.6-.07,51.21-.08,76.82,0,3,0,3-3,2.37l-.19,0c-4.58-.85-4.58-.85-4.58-5.46V24.17c0-.8,0-1.6,0-2.4-.12-2.1-1.14-3.28-3.23-3.31-6.6-.07-13.2,0-19.8-.05-1.19,0-1.67.54-1.66,1.71q0,4,0,8c-.08,7.15-4.82,11.93-12,12q-20.91.06-41.81,0c-7.13,0-11.85-4.84-11.92-12,0-2.54-.05-5.07,0-7.6,0-1.4-.4-2.09-1.93-2.08-6.4.05-12.8,0-19.2.05C9,18.46,8,19.59,7.85,22c0,.67,0,1.34,0,2V160.46c0,.66,0,1.33,0,2,.1,2.42,1.14,3.46,3.6,3.59.79,0,1.6,0,2.4,0q32.7,0,65.41,0c2,0,3.4.38,4.38,2.3a27.71,27.71,0,0,0,3,4c.7.9.68,1.44-.63,1.43h-1.4c-24.07,0-48.15-.14-72.22.08C4.5,174,0,168,0,161.53Q.21,92.21,0,22.9c0-6.66,4.76-12.48,12.39-12.3,12.27.29,24.54.05,36.81.1a2.68,2.68,0,0,0,3-1.89C54,4.24,57.61,1.5,62.21,0ZM65.3,32.3c7.06,0,14.12,0,21.18,0,2.78,0,4-1.24,4-4,0-2.6-.06-5.2,0-7.79.06-1.6-.59-2.1-2.11-2.07-3.53.07-7.06,0-10.59,0-3.77,0-4.8-.93-5.42-4.59-.65-3.86-3.22-6.18-6.88-6.23s-6.44,2.27-7.11,6.2c-.64,3.68-1.66,4.58-5.4,4.62-3.33,0-6.66,0-10,0-2.7,0-2.71,0-2.71,2.62q0,3.3,0,6.59c0,3.61,1,4.68,4.6,4.68Q55.11,32.32,65.3,32.3Z"/><path d="M156,144.7a36.34,36.34,0,1,1-36.16-36.38A36.19,36.19,0,0,1,156,144.7Zm-7.71,0a28.61,28.61,0,1,0-28.72,28.67A28.4,28.4,0,0,0,148.27,144.7Z"/><path d="M65.21,72.55H27.4c-.67,0-1.34,0-2,0a3.9,3.9,0,0,1-3.66-3.6,3.81,3.81,0,0,1,3.09-3.87,11.6,11.6,0,0,1,2.57-.24q38,0,76,0a11.64,11.64,0,0,1,2.77.29,3.8,3.8,0,0,1,2.89,3.83,3.87,3.87,0,0,1-3.47,3.56,17.75,17.75,0,0,1-2.19.05Z"/><path d="M65.19,94.19h-38a15.82,15.82,0,0,1-2.39-.09,3.73,3.73,0,0,1,0-7.35,17.45,17.45,0,0,1,2.4-.08h76.38a17.75,17.75,0,0,1,2.19.06,3.73,3.73,0,0,1,0,7.4,21.31,21.31,0,0,1-2.4.06Z"/><path d="M54.61,108.32c9.46,0,18.93,0,28.4,0,3.25,0,5.18,2.59,4,5.25a3.6,3.6,0,0,1-2.85,2.27,18.38,18.38,0,0,1-2.78.2H27.8a11.35,11.35,0,0,1-3.18-.27,3.77,3.77,0,0,1,.58-7.42,16.7,16.7,0,0,1,2-.05Z"/><path d="M49,137.73H26.61c-1.58,0-3.07-.25-4.09-1.63a3.74,3.74,0,0,1,1.86-5.85,8.54,8.54,0,0,1,3-.29H71.93c2.86.07,4.61,1.58,4.57,3.93s-1.85,3.8-4.51,3.82c-4.93,0-9.86,0-14.79,0Z"/><path d="M123.53,135.05c0,3.19,0,6.39,0,9.59a3.33,3.33,0,0,1-1.45,3.05q-6.69,4.92-13.27,9.95c-1.06.81-1.71.81-2.6-.32-3.62-4.63-3.66-4.61,1-8.07,2.18-1.64,4.31-3.35,6.57-4.89a4.2,4.2,0,0,0,2-4c-.11-5.06,0-10.13-.07-15.19,0-1.94.66-2.55,2.55-2.49,6.11.17,5.16-.78,5.25,5.14C123.56,130.25,123.53,132.65,123.53,135.05Z"/></g></g></svg>