<svg xmlns="http://www.w3.org/2000/svg" viewBox="0 0 54 49.91"><defs><style>.cls-1{fill:#495653;}.cls-2{fill:#fff;}</style></defs><g id="Layer_2" data-name="Layer 2"><g id="Layer_1-2" data-name="Layer 1"><path class="cls-2" d="M47.93,1.64,45,3.51a.72.72,0,0,1-.39,0,9.84,9.84,0,0,0-1.09-.14H6.38a2.76,2.76,0,0,0-3,3q0,18.57,0,37.13a2.77,2.77,0,0,0,3,3H43.51a2.77,2.77,0,0,0,3-3q0-16,0-32.11a1.27,1.27,0,0,1,.27-.75c.89-1.07,1.81-2.11,2.71-3.17l.37-.39c0,.21,0,.36,0,.51,0,12,0,23.93,0,35.89a6.36,6.36,0,0,1-6.42,6.42q-18.55-.07-37.09,0A6.35,6.35,0,0,1,0,43.49C0,31.11,0,18.74,0,6.36A6.14,6.14,0,0,1,6.34,0H43.59A6.23,6.23,0,0,1,47.93,1.64Z"/><path class="cls-1" d="M53.4,1.32a7.64,7.64,0,0,0-3.74.6,25,25,0,0,0-6.83,4.47,56,56,0,0,0-7.52,7.79c-1.23,1.54-2.42,3.11-3.6,4.68l-.8,1.07-1.47,1.95c-.09.13-1.38,2-1.57,2.31l-.15.24a6.82,6.82,0,0,0-.47.65c-.72,1.15-1.46,2.29-2.19,3.44l-.39.56-3.08-3s-.54-.45-1-.82-.68-.57-1-.85A16.77,16.77,0,0,0,14,21.29a10.2,10.2,0,0,0-6.3.18,3,3,0,0,0-.44.25l.3.22C9,23,10.37,24,11.76,25.05c.52.39,1,.83,1.52,1.25h0a2.26,2.26,0,0,0,.23.31A49.43,49.43,0,0,1,24,41c.25.53.51,1.06.81,1.68.57-1.16,1.1-2.23,1.64-3.3s1.13-2.16,1.71-3.23S29.33,34,29.93,33s1.23-2.11,1.87-3.14,1.27-2.05,1.93-3.06,1.22-2,1.92-2.89,1.37-2,2.06-3,1.41-2,2.13-2.92,1.46-1.95,2.21-2.91,1.49-1.89,2.25-2.83,1.54-1.88,2.33-2.81S48.19,7.63,49,6.73,50.62,4.92,51.46,4,53.13,2.31,54,1.42Z"/></g></g></svg>